<?xml version="1.0" encoding="UTF-8"?>
<svg width="22px" height="22px" viewBox="0 0 22 22" version="1.1" xmlns="http://www.w3.org/2000/svg" xmlns:xlink="http://www.w3.org/1999/xlink">
    <!-- Generator: Sketch 48.2 (47327) - http://www.bohemiancoding.com/sketch -->
    <title>add-square-button</title>
    <desc>Created with Sketch.</desc>
    <defs></defs>
    <g id="Order-Detail-Staff-6" stroke="none" stroke-width="1" fill="none" fill-rule="evenodd" transform="translate(-21.000000, -607.000000)" opacity="0.6">
        <g id="Global-Nav" fill-rule="nonzero">
            <g id="add-square-button" transform="translate(21.000000, 607.000000)">
                <g id="Group-3" opacity="0.5">
                    <path d="M20.0801638,1.94225548 L20.080053,1.94213965 C19.4702958,1.30443445 18.7658242,1 17.9078873,1 L4.09172879,1 C3.23351158,1 2.52895256,1.30444914 1.91913246,1.94232237 C1.30081035,2.58877754 1,3.34970728 1,4.27783166 L1,17.7221683 C1,18.6383963 1.30096684,19.3974661 1.92185719,20.0512399 C2.53164418,20.6938342 3.23505897,21 4.09172879,21 L17.9083352,21 C18.7648425,21 19.4678253,20.6939685 20.0781612,20.050951 C20.6989339,19.3973016 21,18.6381945 21,17.7221683 L21,4.27783166 C21,3.35019816 20.6988862,2.58912923 20.0801638,1.94225548 Z" id="Shape" stroke="#FFFFFF" stroke-width="2"></path>
                    <path d="M16.4006272,9.80026271 L12.2003547,9.80026271 L12.2003547,5.59996716 C12.2003547,5.42480433 12.1442004,5.28116688 12.0313665,5.16866072 C11.919452,5.05608888 11.7755526,5 11.6002594,5 L10.400266,5 C10.2251041,5 10.0814675,5.05608888 9.96896191,5.16866072 C9.85639069,5.28116688 9.80030212,5.42500137 9.80030212,5.59996716 L9.80030212,9.80032839 L5.59996388,9.80032839 C5.42499904,9.80032839 5.28096831,9.85648295 5.1686598,9.96898911 C5.05628561,10.0814953 5,10.2253298 5,10.4002956 L5,11.6002956 C5,11.7753927 5.05608858,11.9191615 5.1686598,12.0313393 C5.28109966,12.143517 5.42499904,12.2001314 5.59996388,12.2001314 L9.80030212,12.2001314 L9.80030212,16.4004269 C9.80030212,16.5755241 9.85639069,16.7192929 9.96896191,16.8314706 C10.0814675,16.9438454 10.2253012,17 10.400266,17 L11.6002594,17 C11.7756183,17 11.919452,16.9438454 12.0313665,16.8314706 C12.1442004,16.7192929 12.2003547,16.5755241 12.2003547,16.4004269 L12.2003547,12.200197 L16.4006272,12.200197 C16.5754607,12.200197 16.7193601,12.1435827 16.8316686,12.031405 C16.9441085,11.9192272 17,11.7754584 17,11.6003612 L17,10.4003612 C17,10.2253954 16.9440428,10.0813639 16.8316686,9.96905479 C16.7193601,9.85667998 16.5754607,9.80026271 16.4006272,9.80026271 Z" id="Shape" fill="#FFFFFF"></path>
                </g>
            </g>
        </g>
    </g>
</svg>