<?xml version="1.0" encoding="UTF-8"?>
<svg width="22px" height="24px" viewBox="0 0 22 24" version="1.1" xmlns="http://www.w3.org/2000/svg" xmlns:xlink="http://www.w3.org/1999/xlink">
    <!-- Generator: Sketch 48.2 (47327) - http://www.bohemiancoding.com/sketch -->
    <title>Admin</title>
    <desc>Created with Sketch.</desc>
    <defs></defs>
    <g id="Global-Nav" stroke="none" stroke-width="1" fill="none" fill-rule="evenodd" transform="translate(-21.000000, -533.000000)" opacity="0.600000024">
        <g id="Admin" transform="translate(21.000000, 533.000000)" fill="#FFFFFF" fill-rule="nonzero">
            <path d="M19.35875,13.1025 C19.40375,12.7425 19.4375,12.3825 19.4375,12 C19.4375,11.6175 19.40375,11.2575 19.35875,10.8975 L21.7325,9.04125 C21.94625,8.8725 22.0025,8.56875 21.8675,8.32125 L19.6175,4.42875 C19.4825,4.18125 19.17875,4.09125 18.93125,4.18125 L16.13,5.30625 C15.545,4.85625 14.915,4.485 14.22875,4.20375 L13.80125,1.2225 C13.7675,0.9525 13.53125,0.75 13.25,0.75 L8.75,0.75 C8.46875,0.75 8.2325,0.9525 8.19875,1.2225 L7.77125,4.20375 C7.085,4.485 6.455,4.8675 5.87,5.30625 L3.06875,4.18125 C2.81,4.08 2.5175,4.18125 2.3825,4.42875 L0.1325,8.32125 C-0.01375,8.56875 0.05375,8.8725 0.2675,9.04125 L2.64125,10.8975 C2.59625,11.2575 2.5625,11.62875 2.5625,12 C2.5625,12.37125 2.59625,12.7425 2.64125,13.1025 L0.2675,14.95875 C0.05375,15.1275 -0.0025,15.43125 0.1325,15.67875 L2.3825,19.57125 C2.5175,19.81875 2.82125,19.90875 3.06875,19.81875 L5.87,18.69375 C6.455,19.14375 7.085,19.515 7.77125,19.79625 L8.19875,22.7775 C8.2325,23.0475 8.46875,23.25 8.75,23.25 L13.25,23.25 C13.53125,23.25 13.7675,23.0475 13.80125,22.7775 L14.22875,19.79625 C14.915,19.515 15.545,19.1325 16.13,18.69375 L18.93125,19.81875 C19.19,19.92 19.4825,19.81875 19.6175,19.57125 L21.8675,15.67875 C22.0025,15.43125 21.94625,15.1275 21.7325,14.95875 L19.35875,13.1025 Z M11,15.9375 C8.82875,15.9375 7.0625,14.17125 7.0625,12 C7.0625,9.82875 8.82875,8.0625 11,8.0625 C13.17125,8.0625 14.9375,9.82875 14.9375,12 C14.9375,14.17125 13.17125,15.9375 11,15.9375 Z" id="Shape" opacity="0.5"></path>
        </g>
    </g>
</svg>