<?xml version="1.0" encoding="UTF-8"?>
<svg width="32px" height="39px" viewBox="0 0 32 39" version="1.1" xmlns="http://www.w3.org/2000/svg" xmlns:xlink="http://www.w3.org/1999/xlink">
    <!-- Generator: Sketch 48.2 (47327) - http://www.bohemiancoding.com/sketch -->
    <title>batch icon copy</title>
    <desc>Created with Sketch.</desc>
    <defs></defs>
    <g id="Batch" stroke="none" stroke-width="1" fill="none" fill-rule="evenodd" transform="translate(-19.000000, -20.000000)">
        <g id="batch-icon" transform="translate(19.000000, 20.000000)" fill="#566E86">
            <g id="noun_1510476_cc">
                <path d="M5.96252155,20.0504725 L7.78710584,19.9297844 L8.66604988,33.2178202 L6.84146559,33.3385083 L5.96252155,20.0504725 Z M10.3053787,20.0504725 L12.129963,19.9297844 L13.008907,33.2178202 L11.1843227,33.3385083 L10.3053787,20.0504725 Z M14.6482358,20.0504725 L16.4728201,19.9297844 L17.3517642,33.2178202 L15.5271799,33.3385083 L14.6482358,20.0504725 Z M18.991093,20.0504725 L20.8156773,19.9297844 L21.6946213,33.2178202 L19.870037,33.3385083 L18.991093,20.0504725 Z M23.3339501,20.0504725 L25.1585344,19.9297844 L26.0374785,33.2178202 L24.2128942,33.3385083 L23.3339501,20.0504725 Z" id="Combined-Shape" fill-rule="nonzero"></path>
                <path d="M0.195338069,20.7628079 L1.00493625,34.3483909 L1.00532945,34.3483909 L1.1979973,37.5794955 C1.24596767,38.3835793 1.85070881,39 2.56947786,39 C2.60014743,39 2.63042381,38.9991312 2.66109339,38.9965248 L30.7143192,36.9561243 C31.0788153,36.9296256 31.4185398,36.7445691 31.6587848,36.4409199 C31.8994231,36.1377052 32.021315,35.7415278 31.9969366,35.3388344 L30.8023959,15.2919109 C30.7520663,14.4535091 30.0855928,13.8092865 29.3389066,13.8748816 L25.6259218,14.1450816 L19.5950249,9.8583727 C19.1511024,10.4582861 18.5825356,10.9400412 17.9345425,11.2606321 L22.3293356,14.3844387 L9.04862251,15.3505555 L15.9197873,10.1689723 C15.976408,10.1724475 16.0322424,10.1785292 16.0896495,10.1785292 C17.8256262,10.1785292 19.2379995,8.62162157 19.2379995,6.7085018 L19.2379995,1.52040248 C19.2379995,0.653330029 18.581356,-0.0438900503 17.787879,0.00215688329 C17.043552,0.0451629817 16.4856016,0.783217134 16.4856016,1.60641467 L16.4856016,6.24195079 C16.4856016,6.7428198 16.1183531,7.1485541 15.6649939,7.1485541 C15.3406041,7.1485541 15.0464907,6.93743325 14.9147688,6.60989186 C14.9147688,6.60989186 14.9104436,6.59990054 14.9029728,6.58122112 C14.5518455,5.73413131 13.7847129,5.18808418 12.9412995,5.18808418 L12.9412995,6.7085018 C12.9412995,7.64377584 13.2802377,8.49216887 13.8279649,9.11684331 L5.18897426,15.6311812 L1.28568084,15.9152821 C0.921184715,15.9417808 0.581460175,16.1268373 0.341215158,16.4304865 C0.100576942,16.7337012 -0.0213149652,17.1298786 0.00306341622,17.532572 L0.195338069,20.7628079 Z M2.83960605,18.8492537 L28.1459387,17.0086796 L29.1596076,34.0212839 L3.85327488,35.861858 L3.34644046,27.3557731 L2.94183797,20.5629815 L2.83960605,18.8492537 Z" id="Shape" fill-rule="nonzero"></path>
            </g>
        </g>
    </g>
</svg>