<?xml version="1.0" encoding="utf-8"?>
<!-- Generator: Adobe Illustrator 21.0.0, SVG Export Plug-In . SVG Version: 6.00 Build 0)  -->
<svg version="1.1" id="Layer_1" xmlns="http://www.w3.org/2000/svg" xmlns:xlink="http://www.w3.org/1999/xlink" x="0px" y="0px"
	 viewBox="0 0 21 21" style="enable-background:new 0 0 21 21;" xml:space="preserve">
<path d="M18.8,4.5V1c0-0.5-0.4-1-1-1c-0.2,0-0.3,0-0.5,0.1c-0.1,0-6.3,3.6-10.5,3.6H4.7C2.1,3.7,0,5.8,0,8.4c0,1.8,1.1,3.5,2.7,4.3
	l2.5,7.2C5.4,20.5,6,21,6.7,21c0.1,0,0.1,0,0.2,0c1-0.1,1.9-0.4,2.8-0.8c0.2-0.1,0.4-0.2,0.5-0.4c0,0,0.1-0.1,0.1-0.1
	c0.5-0.7,0.5-1.6,0-2.3c-0.2-0.4-0.8-1.8-1-4c3.9,0.9,7.9,3.2,7.9,3.3c0.5,0.3,1,0.1,1.3-0.4c0.1-0.1,0.1-0.3,0.1-0.5v-4.5
	c1.3-0.4,2.3-1.7,2.3-3.1V7.6C21,6.2,20.1,5,18.8,4.5z M1.9,8.4c0-1.5,1.2-2.8,2.7-2.8h1.2v5.5H4.7C3.2,11.1,1.9,9.9,1.9,8.4z
	 M8.7,18.5c-0.5,0.3-1.2,0.5-1.8,0.6l-2.1-6h2c0.2,0,0.4,0,0.6,0c0.1,2.7,0.9,4.6,1.3,5.3L8.7,18.5C8.8,18.4,8.8,18.4,8.7,18.5
	L8.7,18.5z M16.8,4.4v9.8c-2-1-5.7-2.7-9.1-3V5.6c3.2-0.3,7-2,9.1-3V4.4z M19.1,8.2c0,0.3-0.1,0.7-0.4,0.9V6.7
	C19,7,19.1,7.3,19.1,7.6L19.1,8.2z"/>
</svg>
