<?xml version="1.0" encoding="UTF-8"?>
<svg width="20px" height="20px" viewBox="0 0 20 20" version="1.1" xmlns="http://www.w3.org/2000/svg" xmlns:xlink="http://www.w3.org/1999/xlink">
    <!-- Generator: Sketch 50.2 (55047) - http://www.bohemiancoding.com/sketch -->
    <title>category</title>
    <desc>Created with Sketch.</desc>
    <defs></defs>
    <g id="Client-Dashbaord" stroke="none" stroke-width="1" fill="none" fill-rule="evenodd">
        <g id="Artboard" transform="translate(-96.000000, -319.000000)">
            <g id="category" transform="translate(96.000000, 319.000000)">
                <rect id="Rectangle-11" fill="#F47463" x="0" y="0" width="20" height="20" rx="1"></rect>
                <g id="Group" transform="translate(4.000000, 4.000000)" fill="#FFFFFF" fill-rule="nonzero">
                    <path d="M4.54541309,0 L0.909132369,0 C0.662862895,0 0.449827363,0.108029421 0.269901393,0.32399871 C0.0899754228,0.539639643 0,0.795519222 0,1.09089118 L0,4.36359457 C0,4.65902623 0.0899754228,4.91475656 0.269901393,5.13054674 C0.449802487,5.34654588 0.662838019,5.45454545 0.909132369,5.45454545 L4.54541309,5.45454545 C4.79168256,5.45454545 5.00471809,5.34645633 5.18464406,5.13054674 C5.36457003,4.91475656 5.45454545,4.65902623 5.45454545,4.36359457 L5.45454545,1.09089118 C5.45454545,0.795519222 5.36457003,0.539729195 5.18464406,0.32396886 C5.00471809,0.107939869 4.79160793,0 4.54541309,0 Z" id="Shape"></path>
                    <path d="M4.54541309,6.54545455 L0.909132369,6.54545455 C0.662862895,6.54545455 0.449827363,6.65354426 0.269901393,6.86939533 C0.0899754228,7.0852464 0,7.34094827 0,7.6363517 L0,10.909073 C0,11.2045063 0.0899754228,11.4603276 0.269901393,11.6760592 C0.449802487,11.8919998 0.662838019,12 0.909132369,12 L4.54541309,12 C4.79168256,12 5.00471809,11.8920297 5.18464406,11.6760592 C5.36457003,11.4602977 5.45454545,11.2045063 5.45454545,10.909073 L5.45454545,7.6363517 C5.45454545,7.34094827 5.36457003,7.0852464 5.18464406,6.86939533 C5.00471809,6.65336515 4.79160793,6.54545455 4.54541309,6.54545455 Z" id="Shape"></path>
                    <path d="M11.7300489,0.323996937 C11.5503219,0.107939278 11.3370874,0 11.0908925,0 L7.45453716,0 C7.20836719,0 6.99525703,0.10802883 6.81540569,0.323996937 C6.63545484,0.53963669 6.54545455,0.795544719 6.54545455,1.09091506 L6.54545455,4.36360054 C6.54545455,4.65903059 6.63542997,4.91475951 6.81540569,5.13054852 C6.99525703,5.34654648 7.20836719,5.45454545 7.45453716,5.45454545 L11.0908925,5.45454545 C11.3370874,5.45454545 11.5503468,5.34645692 11.7300489,5.13054852 C11.9099997,4.91475951 12,4.65903059 12,4.36360054 L12,1.09088521 C12,0.795514868 11.9100743,0.539815793 11.7300489,0.323996937 Z" id="Shape"></path>
                    <path d="M11.0908925,6.54545455 L7.45453716,6.54545455 C7.20836719,6.54545455 6.99525703,6.65354426 6.81540569,6.86939533 C6.63545484,7.0852464 6.54545455,7.34094827 6.54545455,7.6363517 L6.54545455,10.909073 C6.54545455,11.2045063 6.63542997,11.4603276 6.81540569,11.6760592 C6.99525703,11.8919998 7.20836719,12 7.45453716,12 L11.0908925,12 C11.3370874,12 11.5503468,11.8920297 11.7300489,11.6760592 C11.9099997,11.4602977 12,11.2045063 12,10.909073 L12,7.6363517 C12,7.34094827 11.9100992,7.0852464 11.7300489,6.86939533 C11.5503219,6.65336515 11.3372615,6.54545455 11.0908925,6.54545455 Z" id="Shape"></path>
                </g>
            </g>
        </g>
    </g>
</svg>