<?xml version="1.0" encoding="UTF-8"?>
<svg width="28px" height="23px" viewBox="0 0 28 23" version="1.1" xmlns="http://www.w3.org/2000/svg" xmlns:xlink="http://www.w3.org/1999/xlink">
    <!-- Generator: Sketch 48.2 (47327) - http://www.bohemiancoding.com/sketch -->
    <title>Clients</title>
    <desc>Created with Sketch.</desc>
    <defs></defs>
    <g id="Global-Nav" stroke="none" stroke-width="1" fill="none" fill-rule="evenodd" transform="translate(-18.000000, -341.000000)" opacity="0.600000024">
        <g id="Clients" transform="translate(18.000000, 341.000000)" fill="#FFFFFF" fill-rule="nonzero">
            <path d="M13.4809476,13.6433513 L12.8302484,13.6433513 C12.4927557,13.6433513 12.2189093,13.3472154 12.2189093,12.9811334 C12.2189093,12.845783 12.2691564,12.7149745 12.3587636,12.6205017 C12.7372914,12.2217176 13.0555227,11.6848578 13.2858216,11.106212 C13.3327189,11.1434561 13.3829659,11.1707078 13.4399126,11.1707078 C13.8050411,11.1707078 14.2354908,10.2950178 14.2354908,9.69820418 C14.2354908,9.10139054 14.1844063,8.61721752 13.8184403,8.61721752 C13.7748929,8.61721752 13.7296705,8.62539305 13.6827733,8.63811054 C13.6568123,7.01935574 13.2799595,5 11.0012559,5 C8.62373323,5 8.34653703,7.01572217 8.31973861,8.63266019 C8.28624058,8.62539305 8.25274255,8.61721752 8.22175687,8.61721752 C7.85579089,8.61721752 7.80554384,9.10139054 7.80554384,9.69820418 C7.80554384,10.2950178 8.23431863,11.1707078 8.60028461,11.1707078 C8.64550695,11.1707078 8.68737949,11.157082 8.72673968,11.1325554 C8.95620119,11.7021173 9.27024522,12.2280763 9.64291081,12.6232269 C9.73251804,12.7176997 9.78276509,12.8466914 9.78276509,12.9829502 C9.78276509,13.3490322 9.50891869,13.6460764 9.17142603,13.6460764 L8.51988934,13.6460764 C7.12804617,13.6460764 6,14.8696807 6,16.3794284 L6,17.1370275 C6,17.6130249 6.35591657,18 6.79557822,18 L15.2052588,18 C15.644083,18 15.9999995,17.6130249 15.9999995,17.1370275 L15.9999995,16.3794284 C16.000837,14.8678639 14.8727908,13.6433513 13.4809476,13.6433513 Z" id="Shape"></path>
            <path d="M21.3827945,6 L14,6 C14.2130411,6.42613861 14.365589,6.95049505 14.4287123,7.59920792 C14.5865205,7.68712871 14.7048767,7.82891089 14.8013151,8 L21.3827945,8 C21.7247123,8 22,7.75049505 22,7.44237624 L22,6.55762376 C22,6.25029703 21.7247123,6 21.3827945,6 Z" id="Shape"></path>
            <path d="M21.4061227,10 L15.2097146,10 C15.0416048,10.5956436 14.6276662,11.2190099 14.0540655,11.3853465 C14.03717,11.4146535 14.0177402,11.44 14,11.4693069 L14,12 L21.405278,12 C21.7338946,12 21.999998,11.750495 21.999998,11.4415842 L21.999998,10.5576238 C22.0008428,10.249505 21.7355841,10 21.4061227,10 Z" id="Shape"></path>
            <path d="M22.3430793,14 L17,14 C17.3527216,14.4736634 17.5598756,15.0320792 17.5598756,15.6332673 L17.5598756,16 L22.3430793,16 C22.7069984,16 23,15.750495 23,15.4423762 L23,14.5576238 C23,14.249505 22.7069984,14 22.3430793,14 Z" id="Shape"></path>
            <path d="M24.2092739,0 L3.79160274,0 C1.69723535,0 0,1.72415395 0,3.85173856 L0,19.1482614 C0,21.2767366 1.69723535,23 3.79160274,23 L24.2092739,23 C26.3036413,23 28,21.275846 28,19.1482614 L28,3.85173856 C28,1.72415395 26.3036413,0 24.2092739,0 Z M26.2107142,19.1482614 C26.2107142,20.2694959 25.3130029,21.1814451 24.2092739,21.1814451 L3.79160274,21.1814451 C2.68787376,21.1814451 1.7901625,20.2694959 1.7901625,19.1482614 L1.7901625,3.85173856 C1.7901625,2.73050414 2.68787376,1.81855494 3.79160274,1.81855494 L24.2092739,1.81855494 C25.3130029,1.81855494 26.2107142,2.73050414 26.2107142,3.85173856 L26.2107142,19.1482614 Z" id="Shape"></path>
        </g>
    </g>
</svg>