<?xml version="1.0" encoding="UTF-8"?>
<svg width="20px" height="25px" viewBox="0 0 20 25" version="1.1" xmlns="http://www.w3.org/2000/svg" xmlns:xlink="http://www.w3.org/1999/xlink">
    <!-- Generator: Sketch 48.2 (47327) - http://www.bohemiancoding.com/sketch -->
    <title>COA</title>
    <desc>Created with Sketch.</desc>
    <defs></defs>
    <g id="Order-left-nav" stroke="none" stroke-width="1" fill="none" fill-rule="evenodd" transform="translate(-22.000000, -262.000000)">
        <g id="COA" transform="translate(22.000000, 262.400000)" fill-rule="nonzero">
            <g id="Invoice-Small-Copy-4" fill="#55A2AA">
                <path d="M2.66666667,0 L17.3333333,0 C18.8060927,-2.705415e-16 20,1.19390733 20,2.66666667 L20,21.3333333 C20,22.8060927 18.8060927,24 17.3333333,24 L2.66666667,24 C1.19390733,24 1.81916976e-12,22.8060927 1.8189894e-12,21.3333333 L1.8189894e-12,2.66666667 C1.81880904e-12,1.19390733 1.19390733,2.705415e-16 2.66666667,0 Z" id="Rectangle"></path>
            </g>
            <g id="microscope" transform="translate(2.000000, 3.000000)" fill="#FFFFFF">
                <path d="M1.95686957,8.8 L5.49843478,11.0834783 C5.61321739,11.1572174 5.74121739,11.192 5.86817391,11.192 C6.09252174,11.192 6.31234783,11.082087 6.44313043,10.8796522 C6.64765217,10.5624348 6.55652174,10.1394783 6.23930435,9.93530435 L2.6973913,7.65217391 C2.38017391,7.44765217 1.95721739,7.53913043 1.75304348,7.856 C1.54852174,8.17321739 1.63965217,8.59582609 1.95686957,8.8 Z" id="Shape"></path>
                <path d="M14.4758261,13.2330435 L12.3756522,13.2330435 C13.0518261,12.2542609 13.4486957,11.0598261 13.4486957,9.7773913 C13.4486957,7.15652174 11.7923478,4.91652174 9.47165217,4.04626087 L10.4573913,2.51791304 C10.6918261,2.15408696 10.7725217,1.712 10.6813913,1.28869565 C10.589913,0.865391304 10.333913,0.495652174 9.97008696,0.260869565 C9.21147826,-0.228173913 8.20104348,-0.00973913043 7.71234783,0.748173913 L3.43408696,7.38330435 L6.17947826,9.15373913 L8.12452174,6.1373913 C9.79965217,6.5026087 11.058087,7.99478261 11.058087,9.77773913 C11.058087,11.3408696 10.0914783,12.6935652 8.72417391,13.2333913 L1.49495652,13.2333913 C0.740521739,13.2333913 0.128695652,13.848 0.128695652,14.6024348 C0.128695652,15.3568696 0.740521739,15.9711304 1.49495652,15.9711304 L14.4758261,15.9711304 C15.2302609,15.9711304 15.842087,15.3572174 15.842087,14.6024348 C15.842087,13.8476522 15.2302609,13.2330435 14.4758261,13.2330435 Z" id="Shape"></path>
            </g>
        </g>
    </g>
</svg>