<?xml version="1.0" encoding="UTF-8"?>
<svg width="20px" height="20px" viewBox="0 0 20 20" version="1.1" xmlns="http://www.w3.org/2000/svg" xmlns:xlink="http://www.w3.org/1999/xlink">
    <!-- Generator: Sketch 48.2 (47327) - http://www.bohemiancoding.com/sketch -->
    <title>containers</title>
    <desc>Created with Sketch.</desc>
    <defs></defs>
    <g id="icons" stroke="none" stroke-width="1" fill="none" fill-rule="evenodd" transform="translate(-52.000000, -96.000000)">
        <g id="containers" transform="translate(50.000000, 94.000000)">
            <polygon id="Shape" points="0 0 24 0 24 24 0 24"></polygon>
            <path d="M21.6535797,12.6623932 L13.5473442,8.1965812 C14.4573741,7.42109041 14.515607,6.10986745 13.6774322,5.2678953 C13.4098135,4.99909021 13.0701592,4.8005225 12.6928407,4.69230769 L12.6928407,2 L11.3071595,2 L11.3071595,5.22649573 C11.3071595,5.5805205 11.617359,5.86752137 12.0000001,5.86752137 C12.4846728,5.86752137 12.8775982,6.23106136 12.8775982,6.67948718 C12.8775982,7.12791299 12.4846728,7.49145299 12.0000001,7.49145299 C11.5153274,7.49145299 11.1224019,7.12791299 11.1224019,6.67948718 L9.73672067,6.67948718 C9.73126274,7.25202825 9.98205662,7.80111512 10.4295613,8.1965812 L2.3464205,12.6623932 C2.13193761,12.7769932 1.99981976,12.9887904 2.00000018,13.2179487 L2.00000018,21.3589744 C2.00000018,21.7129991 2.31019973,22 2.69284082,22 L21.3071594,22 C21.6898005,22 22,21.7129991 22,21.3589744 L22,13.1965812 C21.9921063,12.9751018 21.8611161,12.7730702 21.6535797,12.6623932 Z M12.0000001,8.81623932 L18.7898384,12.5555556 L5.21016182,12.5555556 L12.0000001,8.81623932 Z M5.76443433,19.8632479 L4.37875305,19.8632479 L4.37875305,14.6923077 L5.76443433,14.6923077 L5.76443433,19.8632479 Z M8.07390313,19.8632479 L6.68822185,19.8632479 L6.68822185,14.6923077 L8.07390313,14.6923077 L8.07390313,19.8632479 Z M10.3833719,19.8632479 L8.99769065,19.8632479 L8.99769065,14.6923077 L10.3833719,14.6923077 L10.3833719,19.8632479 Z M12.6928407,19.8632479 L11.3071595,19.8632479 L11.3071595,14.6923077 L12.6928407,14.6923077 L12.6928407,19.8632479 Z M15.0023095,19.8632479 L13.6166283,19.8632479 L13.6166283,14.6923077 L15.0023095,14.6923077 L15.0023095,19.8632479 Z M17.3117783,19.8632479 L15.9260971,19.8632479 L15.9260971,14.6923077 L17.3117783,14.6923077 L17.3117783,19.8632479 Z M19.6212471,19.8632479 L18.2355659,19.8632479 L18.2355659,14.6923077 L19.6212471,14.6923077 L19.6212471,19.8632479 Z" id="Shape" fill="#555555" fill-rule="nonzero"></path>
        </g>
    </g>
</svg>