<?xml version="1.0" encoding="UTF-8"?>
<svg width="20px" height="20px" viewBox="0 0 20 20" version="1.1" xmlns="http://www.w3.org/2000/svg" xmlns:xlink="http://www.w3.org/1999/xlink">
    <!-- Generator: Sketch 50.2 (55047) - http://www.bohemiancoding.com/sketch -->
    <title>container</title>
    <desc>Created with Sketch.</desc>
    <defs></defs>
    <g id="Client-Dashbaord" stroke="none" stroke-width="1" fill="none" fill-rule="evenodd">
        <g id="Artboard" transform="translate(-96.000000, -127.000000)">
            <g id="container" transform="translate(96.000000, 127.000000)">
                <rect id="Rectangle-11" fill="#689238" x="0" y="0" width="20" height="20" rx="1"></rect>
                <path d="M13.9678972,9.71608 L6.0308773,9.71608 L9.99923409,6.86764 L13.9678972,9.71608 Z M4.91662472,11.22248 L5.7098059,11.22248 L5.7098059,15.4936 L4.91662472,15.4936 L4.91662472,11.22248 Z M6.77994179,11.22248 L7.57312296,11.22248 L7.57312296,15.4936 L6.77994179,15.4936 L6.77994179,11.22248 Z M8.64417795,11.22248 L9.43735913,11.22248 L9.43735913,15.4936 L8.64417795,15.4936 L8.64417795,11.22248 Z M10.5081078,11.22248 L11.3012889,11.22248 L11.3012889,15.4936 L10.5081078,15.4936 L10.5081078,11.22248 Z M14.2359674,11.22248 L15.0291485,11.22248 L15.0291485,15.4936 L14.2359674,15.4936 L14.2359674,11.22248 Z M3.00030637,17 L17,17 L17,9.71608 L15.4212968,9.71608 L10.884325,6.45968 C11.0552772,6.29336 11.1683261,6.07636 11.1922227,5.82884 L10.3003917,5.75828 C10.287218,5.89716 10.1475152,5.98424 10.0022977,5.98368 C9.83716655,5.98284 9.70175285,5.8602 9.70175285,5.70872 C9.70175285,5.55948 9.8313456,5.43572 9.9955577,5.43404 L10.4397882,5.42928 L10.4397882,4.38824 L10.7274657,4.38824 L10.7274657,3 L9.25323325,3 L9.25323325,4.38824 L9.54060442,4.38824 L9.54060442,4.6996 C9.09606758,4.86928 8.80287546,5.26632 8.80287546,5.709 C8.80287546,5.9974 8.92419634,6.25864 9.1227214,6.4538 L4.57747773,9.71608 L3,9.71608 L3.0009191,13.35776 L3.00030637,17 Z M12.3717312,11.22248 L13.1649124,11.22248 L13.1649124,15.4936 L12.3717312,15.4936 L12.3717312,11.22248 Z" id="Shape" fill="#FFFFFF" fill-rule="nonzero"></path>
            </g>
        </g>
    </g>
</svg>