<?xml version="1.0" encoding="UTF-8"?>
<svg width="20px" height="20px" viewBox="0 0 20 20" version="1.1" xmlns="http://www.w3.org/2000/svg" xmlns:xlink="http://www.w3.org/1999/xlink">
    <!-- Generator: Sketch 50.2 (55047) - http://www.bohemiancoding.com/sketch -->
    <title>contact address</title>
    <desc>Created with Sketch.</desc>
    <defs></defs>
    <g id="Client-Dashbaord" stroke="none" stroke-width="1" fill="none" fill-rule="evenodd">
        <g id="Artboard" transform="translate(-96.000000, -175.000000)">
            <g id="contact-address" transform="translate(96.000000, 175.000000)">
                <rect id="Rectangle-11" fill="#7A3900" x="0" y="0" width="20" height="20" rx="1"></rect>
                <g id="noun_1012362_cc" transform="translate(3.000000, 3.000000)" fill="#FFFFFF" fill-rule="nonzero">
                    <path d="M0.875,9.625 C0.391750844,9.625 6.47630098e-17,10.0167508 0,10.5 C-6.47630098e-17,10.9832492 0.391750844,11.375 0.875,11.375 L1.75,11.375 L1.75,12.6875 C1.75,13.4123737 2.33762627,14 3.0625,14 L12.6875,14 C13.4123737,14 14,13.4123737 14,12.6875 L14,1.3125 C14,0.587626266 13.4123737,6.47630098e-17 12.6875,0 L3.0625,0 C2.33762627,-6.47630098e-17 1.75,0.587626266 1.75,1.3125 L1.75,2.625 L0.875,2.625 C0.391750844,2.625 6.47630098e-17,3.01675084 0,3.5 C-6.47630098e-17,3.98324916 0.391750844,4.375 0.875,4.375 L1.75,4.375 L1.75,6.125 L0.875,6.125 C0.391750854,6.12500001 2.60770322e-08,6.51675085 2.60770321e-08,7 C2.6077032e-08,7.48324915 0.391750854,7.87499999 0.875,7.875 L1.75,7.875 L1.75,9.625 L0.875,9.625 Z M5.25,9.625 C5.25085112,8.53151799 5.92946873,7.55310014 6.95333333,7.16916667 C6.28860685,6.75733176 5.97777258,5.95448297 6.19187119,5.20239848 C6.40596981,4.45031399 7.09303498,3.93154085 7.875,3.93154085 C8.65696502,3.93154085 9.34403019,4.45031399 9.55812881,5.20239848 C9.77222742,5.95448297 9.46139315,6.75733176 8.79666667,7.16916667 C9.82053127,7.55310014 10.4991489,8.53151799 10.5,9.625 L10.5,10.0625 C10.5,10.3041246 10.3041246,10.5 10.0625,10.5 L5.6875,10.5 C5.44587542,10.5 5.25,10.3041246 5.25,10.0625 L5.25,9.625 Z" id="Shape"></path>
                </g>
            </g>
        </g>
    </g>
</svg>