<?xml version="1.0" encoding="utf-8"?>
<!-- Generator: Adobe Illustrator 21.0.0, SVG Export Plug-In . SVG Version: 6.00 Build 0)  -->
<svg version="1.1" id="Layer_1" xmlns="http://www.w3.org/2000/svg" xmlns:xlink="http://www.w3.org/1999/xlink" x="0px" y="0px"
	 viewBox="0 0 20 17" style="enable-background:new 0 0 20 17;" xml:space="preserve">
<g>
	<path d="M8.5,11.3c-0.8-0.8-0.8-2.2,0-3c0.9-0.8,2.2-0.8,3.1,0c0.1,0.1,0.1,0.1,0.2,0.2l4,0.4c0.5,0.1,0.8,0.5,0.8,1
		c0,0.4-0.4,0.7-0.8,0.8l-4,0.4c-0.7,0.9-2.1,1.1-3,0.4C8.6,11.5,8.5,11.4,8.5,11.3L8.5,11.3z M4.2,16.8L5,16l0.8-0.8
		c0.3-0.4,0.3-1-0.1-1.3c-0.3-0.3-0.8-0.3-1.2,0l-0.8,0.8c-0.9-1.1-1.5-2.5-1.7-4h1.1c0.5,0,0.9-0.4,0.9-0.9l0,0l0,0
		c0-0.5-0.4-0.9-0.9-0.9H2c0.2-1.4,0.7-2.8,1.7-4l0.8,0.8c0.3,0.4,0.9,0.4,1.3,0c0.4-0.3,0.4-0.9,0-1.3c0,0,0,0,0,0L5,3.6
		c1.2-0.9,2.6-1.5,4-1.6v1.1C9.1,3.6,9.5,4,10,4c0,0,0,0,0,0l0,0c0.5,0,0.9-0.4,0.9-0.9c0,0,0,0,0,0V2c1.5,0.2,2.9,0.7,4,1.6
		l-0.8,0.8c-0.4,0.3-0.4,0.9,0,1.3c0.3,0.4,0.9,0.4,1.3,0c0,0,0,0,0.1,0l0.8-0.8c2.3,2.9,2.3,6.9,0,9.8l-0.8-0.8
		c-0.4-0.3-1-0.3-1.3,0c-0.3,0.3-0.3,0.9,0,1.2l0.8,0.8l0.8,0.8c0.4,0.4,0.9,0.4,1.3,0c3.9-3.8,3.9-10.1,0-13.9
		C13.1-1,6.8-1,2.9,2.9c-3.9,3.8-3.9,10,0,13.9C3.3,17.1,3.9,17.1,4.2,16.8L4.2,16.8z"/>
</g>
</svg>
