<?xml version="1.0" encoding="UTF-8"?>
<svg width="19px" height="18px" viewBox="0 0 19 18" version="1.1" xmlns="http://www.w3.org/2000/svg" xmlns:xlink="http://www.w3.org/1999/xlink">
    <!-- Generator: Sketch 48.2 (47327) - http://www.bohemiancoding.com/sketch -->
    <title>export</title>
    <desc>Created with Sketch.</desc>
    <defs></defs>
    <g id="Order-Detail-Nav" stroke="none" stroke-width="1" fill="none" fill-rule="evenodd" transform="translate(-1136.000000, -13.000000)">
        <g id="export" transform="translate(1136.000000, 13.000000)" fill="#075DA8" fill-rule="nonzero">
            <path d="M18.823926,12.4641818 C18.8314846,12.4545273 18.8380077,12.4442727 18.8451004,12.4343455 C18.8532285,12.4229455 18.8616154,12.4117636 18.8691223,12.3998727 C18.8766291,12.3880909 18.8831005,12.3758182 18.8899343,12.3637636 C18.8960433,12.3529636 18.9025147,12.3423818 18.9081578,12.3312545 C18.9144221,12.3189818 18.9197028,12.3062727 18.9253458,12.2937273 C18.9305747,12.2821091 18.9360625,12.2706545 18.9407737,12.2586545 C18.9455366,12.2464909 18.9494195,12.2340545 18.953613,12.2216727 C18.9580135,12.2088545 18.9626729,12.1962 18.9664522,12.1830545 C18.9699727,12.1707273 18.9725612,12.1582909 18.975564,12.1458 C18.9787738,12.1323818 18.982346,12.1190727 18.9849346,12.1053818 C18.9876267,12.0911455 18.9891798,12.0768 18.9911471,12.0624 C18.9928038,12.0503455 18.9949782,12.0384545 18.9961172,12.0261818 C18.9986022,11.9997273 18.9998965,11.9731091 18.9999482,11.9465455 C18.9999482,11.9461636 19,11.9458364 19,11.9454545 C19,11.9450182 18.9999482,11.9445273 18.9999482,11.9440909 C18.9999482,11.9175818 18.9986539,11.8911273 18.9961689,11.8647273 C18.99503,11.8524545 18.9928556,11.8406182 18.9911989,11.8285091 C18.9892316,11.8141636 18.9876784,11.7998182 18.9849863,11.7855818 C18.9823978,11.7717818 18.9787738,11.7583636 18.975564,11.7448364 C18.972613,11.7325091 18.9700244,11.7201273 18.9665558,11.7079091 C18.9627765,11.6947091 18.9580653,11.6819455 18.953613,11.6690182 C18.9494195,11.6567455 18.9455884,11.6443636 18.9408772,11.6323091 C18.9361143,11.6202545 18.9305747,11.6087455 18.9253458,11.5970182 C18.9197545,11.5845273 18.9145257,11.5719818 18.9083131,11.5597636 C18.9026183,11.5485273 18.8960951,11.5378909 18.8899343,11.5270364 C18.8831523,11.5149818 18.8766809,11.5028727 18.8692258,11.4911455 C18.8616154,11.4792 18.8531767,11.4680182 18.8450486,11.4565091 C18.8380077,11.4465818 18.8314846,11.4364364 18.8239777,11.4268364 C18.8084981,11.4069273 18.7920866,11.3878909 18.7748986,11.3696182 C18.7740702,11.3687455 18.7733972,11.3677636 18.7725689,11.3668909 L16.8311985,9.32138182 C16.5279742,9.00190909 16.0362508,9.00185455 15.7329747,9.32132727 C15.4296987,9.64085455 15.4296987,10.1588727 15.7329747,10.4784 L16.3487421,11.1272182 L13.9782397,11.1273273 L13.9782397,6.83978182 C13.978395,6.83252727 13.9792751,6.82543636 13.9792751,6.81818182 C13.9792751,6.62149091 13.9126455,6.44165455 13.8028905,6.30054545 C13.8018033,6.29912727 13.8007161,6.29765455 13.7995771,6.29623636 C13.7852882,6.27812727 13.7702228,6.26078182 13.7544843,6.24398182 C13.7522582,6.24158182 13.7499802,6.23912727 13.7477023,6.23672727 C13.7408685,6.22958182 13.7345006,6.22189091 13.7273562,6.21501818 L8.05607372,0.239781818 C8.05581487,0.239563636 8.05555601,0.239290909 8.05529715,0.239018182 C8.03940338,0.222327273 8.02283657,0.206672727 8.0058556,0.191672727 C8.00047139,0.186927273 7.9948801,0.182454545 7.98939234,0.177872727 C7.97696724,0.167509091 7.96438682,0.157472727 7.95144401,0.147981818 C7.9449726,0.143181818 7.93844942,0.138490909 7.9318227,0.133909091 C7.91820686,0.124527273 7.90438394,0.115745455 7.89030215,0.107345455 C7.88450377,0.103909091 7.87891248,0.100145455 7.87301055,0.0968181818 C7.85421759,0.0862363636 7.83506222,0.0765272727 7.81559623,0.0676909091 C7.80762345,0.0640363636 7.79949537,0.0609272727 7.79141905,0.0575454545 C7.77847624,0.0521454545 7.76548165,0.0470727273 7.75227998,0.0424363636 C7.74322001,0.0392727273 7.73416004,0.0362181818 7.72499653,0.0333818182 C7.71003463,0.0288 7.69491742,0.0247636364 7.67969667,0.0211090909 C7.67291464,0.0195272727 7.66628792,0.0175090909 7.65940234,0.0160363636 C7.63765841,0.0114545455 7.6157074,0.00807272727 7.59365284,0.00550909091 C7.58692258,0.00469090909 7.58008877,0.00425454545 7.57330674,0.0036 C7.55503149,0.00190909091 7.53675623,0.000981818182 7.51842921,0.000654545455 C7.51449459,0.000545454545 7.51076706,0 7.50683244,0 L0.776568873,0 C0.34769577,0 0,0.366327273 0,0.818181818 L0,17.1818182 C0,17.6336727 0.34769577,18 0.776568873,18 L13.2016708,18 C13.630544,18 13.9782397,17.6336727 13.9782397,17.1818182 L13.9782397,12.7636909 L16.3486386,12.7637455 L15.732923,13.4124545 C15.4296469,13.7319818 15.4296469,14.25 15.732923,14.5695273 C15.884561,14.7292909 16.0833109,14.8092 16.2820089,14.8092 C16.480707,14.8092 16.6795087,14.7293455 16.8310949,14.5695273 L18.7724653,12.5241273 C18.7728795,12.5236909 18.7731901,12.5232545 18.7735525,12.5228727 C18.7913101,12.5041091 18.8080839,12.4845273 18.823926,12.4641818 Z M8.28340132,2.79343636 L11.3268783,6 L8.28340132,6 L8.28340132,2.79343636 Z M12.425102,16.3636364 L1.55313775,16.3636364 L1.55313775,1.63636364 L6.73026357,1.63636364 L6.73026357,6.81818182 C6.73026357,7.27003636 7.07795934,7.63636364 7.50683244,7.63636364 L12.425102,7.63636364 L12.425102,11.1273273 L9.05991842,11.1272727 C8.63104532,11.1272727 8.28334955,11.4936 8.28334955,11.9454545 C8.28334955,12.3973091 8.63104532,12.7636364 9.05991842,12.7636364 L12.425102,12.7636909 L12.425102,16.3636364 Z" id="XMLID_223_"></path>
        </g>
    </g>
</svg>