<?xml version="1.0" encoding="UTF-8"?>
<svg width="16px" height="23px" viewBox="0 0 16 23" version="1.1" xmlns="http://www.w3.org/2000/svg" xmlns:xlink="http://www.w3.org/1999/xlink">
    <!-- Generator: Sketch 48.2 (47327) - http://www.bohemiancoding.com/sketch -->
    <title>Artboard</title>
    <desc>Created with Sketch.</desc>
    <defs></defs>
    <g id="Page-1" stroke="none" stroke-width="1" fill="none" fill-rule="evenodd" opacity="0.726449275">
        <g id="Artboard" fill="#000000" fill-rule="nonzero">
            <g id="noun_14443_cc">
                <path d="M15.9281633,2.33665306 C15.9294694,4.07967347 12.3990204,4.66416327 8.04408163,4.66416327 C3.69044898,4.66416327 0.208979592,3.89714286 0.161306122,2.33665306 C0.113632653,0.775836735 3.69077551,0.00718367347 8.04408163,0.00718367347 C12.3990204,0.00718367347 15.9268571,0.593632653 15.9281633,2.33665306 Z" id="Shape"></path>
                <path d="M8.04538776,5.73257143 C3.91967347,5.73257143 0.574693878,4.7444898 0.574693878,3.52522449 L0.574693878,7.96636735 L0.574693878,10.5426939 C0.574693878,11.7613061 3.91967347,12.7487347 8.04538776,12.7487347 C12.171102,12.7487347 15.5157551,11.7616327 15.5157551,10.5426939 L15.5157551,7.96636735 L15.5157551,3.52522449 C15.5157551,4.7444898 12.171102,5.73257143 8.04538776,5.73257143 Z" id="Shape"></path>
                <path d="M8.04538776,13.6189388 C3.91967347,13.6189388 0.574693878,12.6315102 0.574693878,11.4115918 L0.574693878,15.8533878 L0.574693878,18.4290612 C0.574693878,19.6473469 3.91967347,20.6364082 8.04538776,20.6364082 C12.171102,20.6364082 15.5157551,19.6476735 15.5157551,18.4290612 L15.5157551,15.8533878 L15.5157551,11.4115918 C15.5157551,12.6315102 12.171102,13.6189388 8.04538776,13.6189388 Z" id="Shape"></path>
                <path d="M15.188898,19.9931429 C14.2553469,20.8976327 11.4102857,21.5559184 8.04408163,21.5559184 C4.67755102,21.5559184 1.83314286,20.8973061 0.899265306,19.9931429 C0.688653061,20.196898 0.573387755,20.4130612 0.573387755,20.6367347 C0.573387755,21.8553469 3.91836735,22.8440816 8.04408163,22.8440816 C12.1701224,22.8440816 15.514449,21.8556735 15.514449,20.6367347 C15.514449,20.4133878 15.3998367,20.1972245 15.188898,19.9931429 Z" id="Shape"></path>
            </g>
        </g>
    </g>
</svg>