<svg viewBox="0 0 16 22" version="1.1" xmlns="http://www.w3.org/2000/svg" xmlns:xlink="http://www.w3.org/1999/xlink">
                        <g id="Page-1" stroke="none" stroke-width="1" fill="none" fill-rule="evenodd">
                        <g id="export-(4)" transform="translate(8.000000, 11.000000) rotate(-90.000000) translate(-8.000000, -11.000000) translate(-3.000000, 3.000000)" fill-rule="nonzero">
                        <path d="M22,8 L18,4 L18,7 L9,7 L9,9 L18,9 L18,12 L22,8 Z M0,14 L0,2 C0,0.89 0.9,0 2,0 L14,0 C15.1045695,0 16,0.8954305 16,2 L16,5 L14,5 L14,2 L2,2 L2,14 L14,14 L14,11 L16,11 L16,14 C16,15.1045695 15.1045695,16 14,16 L2,16 C0.8954305,16 2.22044605e-16,15.1045695 0,14 Z" id="Shape"></path>
                        </g>
                        </g>
                        </svg>
