<?xml version="1.0" encoding="UTF-8"?>
<svg width="16px" height="20px" viewBox="0 0 16 20" version="1.1" xmlns="http://www.w3.org/2000/svg" xmlns:xlink="http://www.w3.org/1999/xlink">
    <!-- Generator: Sketch 48.2 (47327) - http://www.bohemiancoding.com/sketch -->
    <title>file</title>
    <desc>Created with Sketch.</desc>
    <defs></defs>
    <g id="Page-1" stroke="none" stroke-width="1" fill="none" fill-rule="evenodd">
        <g id="file" fill="#55A2AA" fill-rule="nonzero">
            <path d="M11.0345532,0 L0,0 L0,20 L16,20 L16,4.862 L11.0345532,0 Z M3.74468085,4.66666667 L7.14893617,4.66666667 C7.33685106,4.66666667 7.4893617,4.81566667 7.4893617,5 C7.4893617,5.18433333 7.33685106,5.33333333 7.14893617,5.33333333 L3.74468085,5.33333333 C3.55676596,5.33333333 3.40425532,5.18433333 3.40425532,5 C3.40425532,4.81566667 3.55676596,4.66666667 3.74468085,4.66666667 Z M12.2553191,16 L3.74468085,16 C3.55676596,16 3.40425532,15.851 3.40425532,15.6666667 C3.40425532,15.4823333 3.55676596,15.3333333 3.74468085,15.3333333 L12.2553191,15.3333333 C12.443234,15.3333333 12.5957447,15.4823333 12.5957447,15.6666667 C12.5957447,15.851 12.443234,16 12.2553191,16 Z M12.2553191,13.3333333 L3.74468085,13.3333333 C3.55676596,13.3333333 3.40425532,13.1843333 3.40425532,13 C3.40425532,12.8156667 3.55676596,12.6666667 3.74468085,12.6666667 L12.2553191,12.6666667 C12.443234,12.6666667 12.5957447,12.8156667 12.5957447,13 C12.5957447,13.1843333 12.443234,13.3333333 12.2553191,13.3333333 Z M12.2553191,10.6666667 L3.74468085,10.6666667 C3.55676596,10.6666667 3.40425532,10.5176667 3.40425532,10.3333333 C3.40425532,10.149 3.55676596,10 3.74468085,10 L12.2553191,10 C12.443234,10 12.5957447,10.149 12.5957447,10.3333333 C12.5957447,10.5176667 12.443234,10.6666667 12.2553191,10.6666667 Z M12.2553191,8 L3.74468085,8 C3.55676596,8 3.40425532,7.851 3.40425532,7.66666667 C3.40425532,7.48233333 3.55676596,7.33333333 3.74468085,7.33333333 L12.2553191,7.33333333 C12.443234,7.33333333 12.5957447,7.48233333 12.5957447,7.66666667 C12.5957447,7.851 12.443234,8 12.2553191,8 Z M10.5531915,5.33333333 L10.5531915,0.666666667 L15.3191489,5.33333333 L10.5531915,5.33333333 Z" id="Shape"></path>
        </g>
    </g>
</svg>