<?xml version="1.0" encoding="UTF-8"?>
<svg width="26px" height="26px" viewBox="0 0 26 26" version="1.1" xmlns="http://www.w3.org/2000/svg" xmlns:xlink="http://www.w3.org/1999/xlink">
    <!-- Generator: Sketch 48.2 (47327) - http://www.bohemiancoding.com/sketch -->
    <title>Inventory</title>
    <desc>Created with Sketch.</desc>
    <defs></defs>
    <g id="Global-Nav" stroke="none" stroke-width="1" fill="none" fill-rule="evenodd" transform="translate(-19.000000, -405.000000)" opacity="0.600000024">
        <g id="Inventory" transform="translate(19.000000, 405.000000)" fill="#FFFFFF" fill-rule="nonzero">
            <path d="M17.4462621,12.0714286 L7.61980851,12.0714286 C7.00364593,12.0714286 6.5,11.5650857 6.5,10.9456238 L6.5,1.12580481 C6.5,0.506342832 7.00364593,0 7.61980851,0 L17.4516201,0 C18.0677826,0 18.5714286,0.506342832 18.5714286,1.12580481 L18.5714286,11.0102633 C18.5660706,11.5704724 18.0624247,12.0714286 17.4462621,12.0714286 Z M8.68067973,9.88445847 L16.3318116,9.88445847 L16.3318116,2.19235673 L8.68067973,2.19235673 L8.68067973,9.88445847 Z" id="Shape"></path>
            <g id="Group" transform="translate(0.000000, 13.928571)">
                <path d="M10.8183299,12.0209094 L1.10672098,12.0209094 C0.497759674,12.0209094 0,11.5210352 0,10.9094871 L0,1.15662366 C0,0.545075519 0.497759674,0.0452013845 1.10672098,0.0452013845 L10.8236253,0.0452013845 C11.4325866,0.0452013845 11.9303462,0.545075519 11.9303462,1.15662366 L11.9303462,10.9148049 C11.8668024,11.5210352 11.4272912,12.0209094 10.8183299,12.0209094 Z M2.15519348,9.85656073 L9.71690428,9.85656073 L9.71690428,2.26272813 L2.15519348,2.26272813 L2.15519348,9.85656073 Z" id="Shape"></path>
                <path d="M24.8403259,12.0209094 L15.1287169,12.0209094 C14.5197556,12.0209094 14.0219959,11.5210352 14.0219959,10.9094871 L14.0219959,1.15662366 C14.0219959,0.545075519 14.5197556,0.0452013845 15.1287169,0.0452013845 L24.8456212,0.0452013845 C25.4545825,0.0452013845 25.9523422,0.545075519 25.9523422,1.15662366 L25.9523422,10.9148049 C25.9470468,11.5210352 25.4492872,12.0209094 24.8403259,12.0209094 Z M16.2301426,9.85656073 L23.7918534,9.85656073 L23.7918534,2.26272813 L16.2301426,2.26272813 L16.2301426,9.85656073 Z" id="Shape"></path>
            </g>
        </g>
    </g>
</svg>