<?xml version="1.0" encoding="UTF-8"?>
<svg width="20px" height="25px" viewBox="0 0 20 25" version="1.1" xmlns="http://www.w3.org/2000/svg" xmlns:xlink="http://www.w3.org/1999/xlink">
    <!-- Generator: Sketch 48.2 (47327) - http://www.bohemiancoding.com/sketch -->
    <title>Invoice Small</title>
    <desc>Created with Sketch.</desc>
    <defs></defs>
    <g id="Order-left-nav" stroke="none" stroke-width="1" fill="none" fill-rule="evenodd" transform="translate(-22.000000, -214.000000)">
        <g id="Invoice-Small" transform="translate(22.000000, 214.800000)">
            <g id="Group-6">
                <g id="Group-3-Copy">
                    <path d="M2.66666667,0 L17.3333333,0 C18.8060927,-2.705415e-16 20,1.19390733 20,2.66666667 L20,21.3333333 C20,22.8060927 18.8060927,24 17.3333333,24 L2.66666667,24 C1.19390733,24 1.80361e-16,22.8060927 0,21.3333333 L0,2.66666667 C-1.80361e-16,1.19390733 1.19390733,2.705415e-16 2.66666667,0 Z" id="Rectangle" fill="#008080" fill-rule="nonzero"></path>
                    <g id="Group-2" transform="translate(3.333333, 20.000000)"></g>
                </g>
                <g id="dollar-symbol-(1)" transform="translate(4.000000, 4.000000)" fill="#FFFFFF" fill-rule="nonzero">
                    <path d="M3.82496051,4.23974259 C3.44797639,4.03734013 3.04718275,3.88312873 2.65035737,3.7231344 C2.42019864,3.63060756 2.19996055,3.52265958 2.00551611,3.37230347 C1.62257961,3.07544652 1.69599231,2.59353589 2.144405,2.40269929 C2.27138912,2.3487253 2.40432563,2.33137651 2.53924626,2.32366594 C3.05908751,2.29667895 3.55313512,2.38920579 4.0233732,2.60895703 C4.25750018,2.71883266 4.33488113,2.68413509 4.41424621,2.44703506 C4.49757954,2.19644154 4.56702398,1.94199273 4.64440493,1.68947156 C4.69599223,1.51983902 4.63250017,1.40803576 4.46781764,1.33671298 C4.16623034,1.20756094 3.85670654,1.1150341 3.53130972,1.06491539 C3.10670656,1.00130319 3.10670656,0.999375546 3.10472243,0.584932408 C3.10273831,0.000856730001 3.10273831,0.000856730001 2.49956372,0.000856730001 C2.41226213,0.000856730001 2.32496055,-0.0010709125 2.23765896,0.000856730001 C1.95591294,0.00856730001 1.90829389,0.0567583625 1.90035738,0.33241124 C1.89638913,0.45578036 1.90035738,0.57914948 1.89837326,0.704446243 C1.89638913,1.07069832 1.894405,1.06491539 1.5332939,1.1921398 C0.660278052,1.5005626 0.120595527,2.07885535 0.0630558456,3.00412375 C0.0114685454,3.82337181 0.451944724,4.37660521 1.14440502,4.77948249 C1.57099231,5.02814837 2.04321452,5.1746492 2.49559546,5.3693411 C2.67218276,5.44451915 2.84083355,5.53126307 2.98765894,5.6507769 C3.42218274,5.99968019 3.34281766,6.57990059 2.82694466,6.79965183 C2.55115102,6.91723803 2.25948436,6.94615266 1.95988119,6.90952746 C1.49757962,6.85362582 1.05511931,6.73603963 0.638452656,6.5259266 C0.394405043,6.40255748 0.322976474,6.4353274 0.239643143,6.69170385 C0.168214573,6.91338274 0.104722511,7.13698927 0.0412304494,7.3605958 C-0.0440870087,7.66130803 -0.0123409778,7.7326308 0.283293935,7.87334871 C0.660278052,8.05069182 1.06305582,8.14129101 1.47377009,8.20490322 C1.79519866,8.25502192 1.80511929,8.26851542 1.80908755,8.59235936 C1.81107167,8.73886019 1.81107167,8.88728866 1.8130558,9.03378949 C1.81503993,9.21884317 1.90630977,9.32679115 2.10273833,9.33064644 C2.32496055,9.33450172 2.54916689,9.33450172 2.77138911,9.32871879 C2.95392879,9.32486351 3.04718275,9.22848138 3.04718275,9.04921063 C3.04718275,8.84873581 3.05710339,8.64633335 3.04916688,8.44585853 C3.03924624,8.24152842 3.13051608,8.13743573 3.33289703,8.08346174 C3.79916686,7.96009262 4.19599225,7.71720966 4.50154779,7.35481287 C5.35075412,6.35243877 5.02734143,4.88550283 3.82496051,4.23974259 Z" id="Shape"></path>
                </g>
                <path d="M3.33333333,14.6666667 L16.6666667,14.6666667 L16.6666667,16.6666667 L3.33333333,16.6666667 L3.33333333,14.6666667 Z M3.33333333,18 L9.71014493,18 L9.71014493,20 L3.33333333,20 L3.33333333,18 Z M10.2898551,11.3333333 L16.6666667,11.3333333 L16.6666667,13.3333333 L10.2898551,13.3333333 L10.2898551,11.3333333 Z" id="Combined-Shape" fill="#FFFFFF"></path>
            </g>
        </g>
    </g>
</svg>