<?xml version="1.0" encoding="UTF-8"?>
<svg width="22px" height="26px" viewBox="0 0 22 26" version="1.1" xmlns="http://www.w3.org/2000/svg" xmlns:xlink="http://www.w3.org/1999/xlink">
    <!-- Generator: Sketch 48.2 (47327) - http://www.bohemiancoding.com/sketch -->
    <title>Invoice</title>
    <desc>Created with Sketch.</desc>
    <defs></defs>
    <g id="Global-Nav" stroke="none" stroke-width="1" fill="none" fill-rule="evenodd" transform="translate(-21.000000, -213.000000)" opacity="0.600000024">
        <g id="Invoice" transform="translate(21.000000, 213.000000)">
            <g id="Group-3-Copy" transform="translate(4.000000, 21.000000)">
                <g id="Group-2" transform="translate(0.333333, 0.000000)"></g>
            </g>
            <g id="dollar-symbol-(1)" fill="#FFFFFF" fill-rule="nonzero">
                <path d="M3.66666667,1.83333333 C2.65414463,1.83333333 1.83333333,2.65414463 1.83333333,3.66666667 L1.83333333,22.3333333 C1.83333333,23.3458554 2.65414463,24.1666667 3.66666667,24.1666667 L18.3333333,24.1666667 C19.3458554,24.1666667 20.1666667,23.3458554 20.1666667,22.3333333 L20.1666667,3.66666667 C20.1666667,2.65414463 19.3458554,1.83333333 18.3333333,1.83333333 L3.66666667,1.83333333 Z M3.66666667,0.166666667 L18.3333333,0.166666667 C20.26633,0.166666667 21.8333333,1.73367004 21.8333333,3.66666667 L21.8333333,22.3333333 C21.8333333,24.26633 20.26633,25.8333333 18.3333333,25.8333333 L3.66666667,25.8333333 C1.73367004,25.8333333 0.166666667,24.26633 0.166666667,22.3333333 L0.166666667,3.66666667 C0.166666667,1.73367004 1.73367004,0.166666667 3.66666667,0.166666667 Z" id="Rectangle"></path>
                <path d="M8.82496051,9.23974259 C8.44797639,9.03734013 8.04718275,8.88312873 7.65035737,8.7231344 C7.42019864,8.63060756 7.19996055,8.52265958 7.00551611,8.37230347 C6.62257961,8.07544652 6.69599231,7.59353589 7.144405,7.40269929 C7.27138912,7.3487253 7.40432563,7.33137651 7.53924626,7.32366594 C8.05908751,7.29667895 8.55313512,7.38920579 9.0233732,7.60895703 C9.25750018,7.71883266 9.33488113,7.68413509 9.41424621,7.44703506 C9.49757954,7.19644154 9.56702398,6.94199273 9.64440493,6.68947156 C9.69599223,6.51983902 9.63250017,6.40803576 9.46781764,6.33671298 C9.16623034,6.20756094 8.85670654,6.1150341 8.53130972,6.06491539 C8.10670656,6.00130319 8.10670656,5.99937555 8.10472243,5.58493241 C8.10273831,5.00085673 8.10273831,5.00085673 7.49956372,5.00085673 C7.41226213,5.00085673 7.32496055,4.99892909 7.23765896,5.00085673 C6.95591294,5.0085673 6.90829389,5.05675836 6.90035738,5.33241124 C6.89638913,5.45578036 6.90035738,5.57914948 6.89837326,5.70444624 C6.89638913,6.07069832 6.894405,6.06491539 6.5332939,6.1921398 C5.66027805,6.5005626 5.12059553,7.07885535 5.06305585,8.00412375 C5.01146855,8.82337181 5.45194472,9.37660521 6.14440502,9.77948249 C6.57099231,10.0281484 7.04321452,10.1746492 7.49559546,10.3693411 C7.67218276,10.4445192 7.84083355,10.5312631 7.98765894,10.6507769 C8.42218274,10.9996802 8.34281766,11.5799006 7.82694466,11.7996518 C7.55115102,11.917238 7.25948436,11.9461527 6.95988119,11.9095275 C6.49757962,11.8536258 6.05511931,11.7360396 5.63845266,11.5259266 C5.39440504,11.4025575 5.32297647,11.4353274 5.23964314,11.6917039 C5.16821457,11.9133827 5.10472251,12.1369893 5.04123045,12.3605958 C4.95591299,12.661308 4.98765902,12.7326308 5.28329394,12.8733487 C5.66027805,13.0506918 6.06305582,13.141291 6.47377009,13.2049032 C6.79519866,13.2550219 6.80511929,13.2685154 6.80908755,13.5923594 C6.81107167,13.7388602 6.81107167,13.8872887 6.8130558,14.0337895 C6.81503993,14.2188432 6.90630977,14.3267912 7.10273833,14.3306464 C7.32496055,14.3345017 7.54916689,14.3345017 7.77138911,14.3287188 C7.95392879,14.3248635 8.04718275,14.2284814 8.04718275,14.0492106 C8.04718275,13.8487358 8.05710339,13.6463333 8.04916688,13.4458585 C8.03924624,13.2415284 8.13051608,13.1374357 8.33289703,13.0834617 C8.79916686,12.9600926 9.19599225,12.7172097 9.50154779,12.3548129 C10.3507541,11.3524388 10.0273414,9.88550283 8.82496051,9.23974259 Z" id="Shape"></path>
            </g>
            <path d="M4.33333333,15.6666667 L17.6666667,15.6666667 L17.6666667,17.6666667 L4.33333333,17.6666667 L4.33333333,15.6666667 Z M4.33333333,19 L10.7101449,19 L10.7101449,21 L4.33333333,21 L4.33333333,19 Z M11.2898551,12.3333333 L17.6666667,12.3333333 L17.6666667,14.3333333 L11.2898551,14.3333333 L11.2898551,12.3333333 Z" id="Combined-Shape" fill="#FFFFFF"></path>
        </g>
    </g>
</svg>