<?xml version="1.0" encoding="UTF-8"?>
<svg width="52px" height="64px" viewBox="0 0 52 64" version="1.1" xmlns="http://www.w3.org/2000/svg" xmlns:xlink="http://www.w3.org/1999/xlink">
    <!-- Generator: Sketch 48.2 (47327) - http://www.bohemiancoding.com/sketch -->
    <title>Group 6</title>
    <desc>Created with Sketch.</desc>
    <defs></defs>
    <g id="Order-Detail-Staff-4" stroke="none" stroke-width="1" fill="none" fill-rule="evenodd" transform="translate(-766.000000, -1591.000000)">
        <g id="Group" transform="translate(334.000000, 1545.000000)">
            <g id="Group-6" transform="translate(432.000000, 46.000000)">
                <g id="Group-3-Copy" transform="translate(7.849057, 53.000000)">
                    <g id="Group-2" transform="translate(0.817610, 0.333333)"></g>
                </g>
                <g id="dollar-symbol-(1)" transform="translate(10.400000, 10.666667)"></g>
                <path d="M8.66666667,39.1111111 L43.3333333,39.1111111 L43.3333333,44.4444444 L8.66666667,44.4444444 L8.66666667,39.1111111 Z M8.66666667,48 L25.2463768,48 L25.2463768,53.3333333 L8.66666667,53.3333333 L8.66666667,48 Z M26.7536232,30.2222222 L43.3333333,30.2222222 L43.3333333,35.5555556 L26.7536232,35.5555556 L26.7536232,30.2222222 Z" id="Combined-Shape" fill="#DCDEDE"></path>
                <path d="M6.93333333,3.55555556 C5.0187462,3.55555556 3.46666667,5.147432 3.46666667,7.11111111 L3.46666667,56.8888889 C3.46666667,58.852568 5.0187462,60.4444444 6.93333333,60.4444444 L45.0666667,60.4444444 C46.9812538,60.4444444 48.5333333,58.852568 48.5333333,56.8888889 L48.5333333,7.11111111 C48.5333333,5.147432 46.9812538,3.55555556 45.0666667,3.55555556 L6.93333333,3.55555556 Z M6.93333333,0 L45.0666667,0 C48.8958409,-7.21444001e-16 52,3.18375289 52,7.11111111 L52,56.8888889 C52,60.8162471 48.8958409,64 45.0666667,64 L6.93333333,64 C3.10415907,64 4.68938601e-16,60.8162471 0,56.8888889 L0,7.11111111 C-4.68938601e-16,3.18375289 3.10415907,7.21444001e-16 6.93333333,0 Z" id="Rectangle" fill="#DCDEDE" fill-rule="nonzero"></path>
                <path d="M20.3448973,21.9726469 C19.3647386,21.432907 18.3226752,21.0216766 17.2909291,20.5950251 C16.6925165,20.3482868 16.1198974,20.0604255 15.6143419,19.6594759 C14.618707,18.8678574 14.80958,17.5827624 15.975453,17.0738648 C16.3056117,16.9299341 16.6512466,16.8836707 17.0020403,16.8631092 C18.3536275,16.7911439 19.6381513,17.0378821 20.8607703,17.6238854 C21.4695005,17.9168871 21.6706909,17.8243602 21.8770401,17.1920935 C22.0937068,16.5238441 22.2742624,15.8453139 22.4754528,15.1719242 C22.6095798,14.7195707 22.4445004,14.4214287 22.0163259,14.2312346 C21.2321989,13.8868292 20.427437,13.6400909 19.5814053,13.506441 C18.4774371,13.3368085 18.4774371,13.3316681 18.4722783,12.2264864 C18.4671196,10.6689513 18.4671196,10.6689513 16.8988657,10.6689513 C16.6718815,10.6689513 16.4448974,10.6638109 16.2179133,10.6689513 C15.4853736,10.6895128 15.3615641,10.8180223 15.3409292,11.5530966 C15.3306117,11.882081 15.3409292,12.2110653 15.3357705,12.54519 C15.3306117,13.5218622 15.325453,13.506441 14.3865641,13.8457061 C12.1167229,14.6681669 10.7135484,16.2102809 10.5639452,18.6776633 C10.4298182,20.8623248 11.5750563,22.3376139 13.3754531,23.4119533 C14.48458,24.0750623 15.7123578,24.4657312 16.8885482,24.9849096 C17.3476752,25.1853844 17.7861672,25.4167015 18.1679133,25.7354051 C19.2976751,26.6658139 19.0913259,28.2130682 17.7500561,28.7990716 C17.0329926,29.1126347 16.2746593,29.1897404 15.4956911,29.0920732 C14.293707,28.9430022 13.1433102,28.629439 12.0599769,28.0691376 C11.4254531,27.7401533 11.2397388,27.8275397 11.0230722,28.5112103 C10.8373579,29.102354 10.6722785,29.6986381 10.5071992,30.2949221 C10.2853738,31.0968214 10.3679135,31.2870155 11.1365642,31.6622632 C12.1167229,32.1351782 13.1639451,32.376776 14.2318022,32.5464086 C15.0675165,32.6800585 15.0933102,32.7160411 15.1036276,33.579625 C15.1087863,33.9702938 15.1087863,34.3661031 15.1139451,34.756772 C15.1191038,35.2502485 15.3564054,35.5381097 15.8671197,35.5483905 C16.4448974,35.5586713 17.0278339,35.5586713 17.6056117,35.5432501 C18.0802148,35.5329694 18.3226752,35.2759504 18.3226752,34.797895 C18.3226752,34.2632955 18.3484688,33.7235556 18.3278339,33.1889561 C18.3020402,32.6440758 18.5393418,32.3664953 19.0655323,32.2225646 C20.2778338,31.8935803 21.3095798,31.2458924 22.1040243,30.279501 C24.3119607,27.6065034 23.4710877,23.6946742 20.3448973,21.9726469 Z" id="Path" fill="#008080"></path>
            </g>
        </g>
    </g>
</svg>