<?xml version="1.0" encoding="UTF-8"?>
<svg width="30px" height="36px" viewBox="0 0 30 36" version="1.1" xmlns="http://www.w3.org/2000/svg" xmlns:xlink="http://www.w3.org/1999/xlink">
    <!-- Generator: Sketch 48.2 (47327) - http://www.bohemiancoding.com/sketch -->
    <title>Group 6</title>
    <desc>Created with Sketch.</desc>
    <defs></defs>
    <g id="Invoice" stroke="none" stroke-width="1" fill="none" fill-rule="evenodd">
        <g id="Group-6">
            <g id="Group-3-Copy">
                <path d="M4,2 C2.8954305,2 2,2.8954305 2,4 L2,32 C2,33.1045695 2.8954305,34 4,34 L26,34 C27.1045695,34 28,33.1045695 28,32 L28,4 C28,2.8954305 27.1045695,2 26,2 L4,2 Z M4,0 L26,0 C28.209139,-4.05812251e-16 30,1.790861 30,4 L30,32 C30,34.209139 28.209139,36 26,36 L4,36 C1.790861,36 2.705415e-16,34.209139 0,32 L0,4 C-2.705415e-16,1.790861 1.790861,4.05812251e-16 4,0 Z" id="Rectangle" fill="#F36666" fill-rule="nonzero"></path>
                <g id="Group-2" transform="translate(5.000000, 30.000000)"></g>
            </g>
            <g id="dollar-symbol-(1)" transform="translate(6.000000, 6.000000)" fill="#F36666" fill-rule="nonzero">
                <path d="M5.73744076,6.35961389 C5.17196459,6.05601019 4.57077413,5.82469309 3.97553605,5.5847016 C3.63029796,5.44591134 3.29994083,5.28398937 3.00827417,5.0584552 C2.43386942,4.61316978 2.54398847,3.89030384 3.2166075,3.60404893 C3.40708368,3.52308795 3.60648844,3.49706477 3.80886939,3.48549892 C4.58863127,3.44501842 5.32970268,3.58380868 6.0350598,3.91343555 C6.38625027,4.07824899 6.5023217,4.02620264 6.62136931,3.6705526 C6.74636931,3.29466231 6.85053597,2.91298909 6.9666074,2.53420734 C7.04398835,2.27975853 6.94875026,2.11205363 6.70172645,2.00506948 C6.24934551,1.8113414 5.78505981,1.67255114 5.29696458,1.59737309 C4.66005984,1.50195478 4.66005984,1.49906332 4.65708365,0.877398612 C4.65410746,0.001285095 4.65410746,0.001285095 3.74934558,0.001285095 C3.6183932,0.001285095 3.48744082,-0.00160636875 3.35648845,0.001285095 C2.93386941,0.01285095 2.86244084,0.0851375438 2.85053608,0.49861686 C2.8445837,0.683670541 2.85053608,0.868724221 2.84755989,1.05666936 C2.8445837,1.60604748 2.84160751,1.59737309 2.29994085,1.78820969 C0.990417078,2.25084389 0.18089329,3.11828302 0.0945837685,4.50618562 C0.0172028181,5.73505772 0.677917087,6.56490781 1.71660754,7.16922374 C2.35648847,7.54222256 3.06482179,7.76197381 3.7433932,8.05401164 C4.00827414,8.16677873 4.26125033,8.2968946 4.48148842,8.47616535 C5.13327411,8.99952029 5.0142265,9.86985088 4.24041699,10.1994777 C3.82672653,10.375857 3.38922654,10.419229 2.93982179,10.3642912 C2.24636943,10.2804387 1.58267897,10.1040594 0.957678984,9.7888899 C0.591607565,9.60383622 0.484464711,9.6529911 0.359464714,10.0375558 C0.25232186,10.3700741 0.157083767,10.7054839 0.0618456741,11.0408937 C-0.066130513,11.491962 -0.0185114667,11.5989462 0.424940903,11.8100231 C0.990417078,12.0760377 1.59458373,12.2119365 2.21065514,12.3073548 C2.69279799,12.3825329 2.70767894,12.4027731 2.71363132,12.888539 C2.71660751,13.1082903 2.71660751,13.330933 2.7195837,13.5506842 C2.72255989,13.8282648 2.85946465,13.9901867 3.1541075,13.9959697 C3.48744082,14.0017526 3.82375034,14.0017526 4.15708366,13.9930782 C4.43089318,13.9872953 4.57077413,13.8427221 4.57077413,13.5738159 C4.57077413,13.2731037 4.58565508,12.9695 4.57375032,12.6687878 C4.55886937,12.3622926 4.69577412,12.2061536 4.99934554,12.1251926 C5.69875029,11.9401389 6.29398837,11.5758145 6.75232169,11.0322193 C8.02613118,9.52865816 7.54101215,7.32825424 5.73744076,6.35961389 Z" id="Shape"></path>
            </g>
            <path d="M5,22 L25,22 L25,25 L5,25 L5,22 Z M5,27 L14.5652174,27 L14.5652174,30 L5,30 L5,27 Z M15.4347826,17 L25,17 L25,20 L15.4347826,20 L15.4347826,17 Z" id="Combined-Shape" fill="#F36666"></path>
        </g>
    </g>
</svg>