<?xml version="1.0" encoding="UTF-8"?>
<svg width="62px" height="51px" viewBox="0 0 62 51" version="1.1" xmlns="http://www.w3.org/2000/svg" xmlns:xlink="http://www.w3.org/1999/xlink">
    <!-- Generator: Sketch 48.2 (47327) - http://www.bohemiancoding.com/sketch -->
    <title>Group 2</title>
    <desc>Created with Sketch.</desc>
    <defs>
        <filter x="-2.5%" y="-3.8%" width="105.0%" height="110.8%" filterUnits="objectBoundingBox" id="filter-1">
            <feOffset dx="0" dy="2" in="SourceAlpha" result="shadowOffsetOuter1"></feOffset>
            <feGaussianBlur stdDeviation="1.5" in="shadowOffsetOuter1" result="shadowBlurOuter1"></feGaussianBlur>
            <feColorMatrix values="0 0 0 0 0   0 0 0 0 0   0 0 0 0 0  0 0 0 0.0746150362 0" type="matrix" in="shadowBlurOuter1" result="shadowMatrixOuter1"></feColorMatrix>
            <feMerge>
                <feMergeNode in="shadowMatrixOuter1"></feMergeNode>
                <feMergeNode in="SourceGraphic"></feMergeNode>
            </feMerge>
        </filter>
    </defs>
    <g id="Overview-Staff-1" stroke="none" stroke-width="1" fill="none" fill-rule="evenodd" transform="translate(-869.000000, -176.000000)">
        <g id="Group-Copy-2" filter="url(#filter-1)" transform="translate(682.000000, 102.000000)">
            <g id="Group-2" transform="translate(190.000000, 75.000000)">
                <path d="M1.5,3.8459071 L1.5,53.5 L54.5,53.5 L54.5,3.51509627 L43.88298,13.6897404 L36.0585477,4.39822712 L28,14.975071 L19.9642496,4.42814862 L11.572565,14.7943473 L1.5,3.8459071 Z" id="Rectangle-3" stroke="#C0C7CF" stroke-width="3"></path>
                <path d="M34.8032907,37.4377356 C34.67343,36.9961768 34.5158734,36.6118776 34.3308311,36.2855241 C34.1458939,35.958854 33.8810222,35.6402055 33.5356905,35.3285231 C33.1907792,35.016999 32.8805009,34.7661122 32.6053812,34.5753874 C32.3304192,34.3845044 31.9527142,34.171087 31.4724766,33.9348712 C30.9926595,33.6987082 30.6124845,33.5229713 30.3326349,33.4073965 C30.0524175,33.2919801 29.6470692,33.1337641 29.1168528,32.9328541 C28.6467581,32.7521564 28.2967491,32.6139945 28.0664579,32.5186321 C27.8364294,32.4231642 27.5339291,32.287641 27.1587994,32.1117457 C26.7838272,31.9361143 26.5037149,31.7803259 26.31862,31.6448027 C26.1335777,31.5092794 25.9360801,31.3435695 25.7259696,31.1477257 C25.5158591,30.951882 25.3683403,30.7434253 25.2832555,30.5224611 C25.198381,30.3014442 25.1558123,30.0603205 25.1558123,29.7991427 C25.1558123,29.1162491 25.45579,28.5585878 26.0559556,28.1267921 C26.6561738,27.6949965 27.4315016,27.4789931 28.3818339,27.4789931 C28.8017396,27.4789931 29.2298437,27.5366749 29.6646748,27.6523024 C30.0995058,27.7679299 30.4721656,27.8981758 30.7822862,28.0439372 C31.0926695,28.1896985 31.385132,28.3504477 31.6603043,28.5261319 C31.935424,28.7019743 32.130399,28.8349644 32.2455446,28.925366 C32.3605851,29.0158204 32.4334774,29.0760354 32.4631703,29.106222 C32.5933989,29.2066507 32.7280946,29.2417453 32.8681507,29.211717 C33.0181396,29.2016899 33.1332852,29.1212098 33.2134825,28.9706988 L34.4290544,26.7708735 C34.5490349,26.570069 34.5242295,26.379186 34.3540599,26.1982772 C34.2939383,26.1380095 34.2192066,26.0677675 34.1285511,25.9873401 C34.038789,25.9069128 33.8436564,25.7613097 33.5433108,25.5502671 C33.2432805,25.3393828 32.9256973,25.1510329 32.5908238,24.9852702 C32.2555824,24.8196659 31.8203309,24.6513173 31.2851219,24.4806467 C30.7502283,24.3097121 30.1974137,24.1942957 29.6270987,24.1340808 L29.6270987,21.4821419 C29.6270987,21.3416051 29.5821651,21.2260304 29.4924031,21.135576 C29.4024308,21.0453327 29.2873377,21 29.1470713,21 L27.1213284,21 C26.9913101,21 26.8787921,21.0476548 26.7837747,21.1431227 C26.6887572,21.2385906 26.6412485,21.3515266 26.6412485,21.4821419 L26.6412485,24.194243 C25.0707275,24.4954761 23.7953493,25.168501 22.8150613,26.2131595 C21.8348783,27.2578706 21.3446029,28.4730941 21.3446029,29.8594105 C21.3446029,30.2712048 21.3872767,30.6629451 21.4723089,31.0344203 C21.557236,31.4062121 21.6623438,31.7402178 21.7874221,32.0364902 C21.9123953,32.3329737 22.0900275,32.6241798 22.320056,32.9105307 C22.5500845,33.1967761 22.7677102,33.4429134 22.972723,33.6487314 C23.1778409,33.8544966 23.4454454,34.0680196 23.7754314,34.288931 C24.1056276,34.5100534 24.3882099,34.6884818 24.6233361,34.8240051 C24.8585148,34.9591061 25.1710529,35.1153167 25.5610555,35.2906842 C25.9511631,35.4665795 26.2588662,35.5995168 26.4839546,35.6901295 C26.709043,35.7804256 27.0165885,35.9061329 27.4068538,36.0665126 C27.9469503,36.2774497 28.3471483,36.440732 28.607185,36.5563068 C28.867432,36.6718815 29.197418,36.8325779 29.5977736,37.0385015 C29.9977614,37.2442139 30.2902239,37.4326166 30.4754239,37.6034455 C30.6604662,37.7742745 30.8279555,37.9852116 30.978102,38.2362568 C31.1282485,38.487302 31.2034532,38.7534933 31.2034532,39.0348835 C31.2034532,39.8284439 30.8958552,40.4410428 30.2805015,40.8726274 C29.6654105,41.3046869 28.9524642,41.5206375 28.1423457,41.5206375 C27.7725764,41.5206375 27.4021765,41.4806877 27.032197,41.4003659 C25.7318031,41.1388715 24.516494,40.5110737 23.3861646,39.5167088 L23.3561563,39.4865749 C23.2660789,39.3763831 23.1459932,39.3311031 22.9961095,39.3513155 C22.8360303,39.3713696 22.7209372,39.4316901 22.650988,39.5323298 L21.1054826,41.5662341 C20.9553887,41.7670914 20.9655316,41.9729622 21.1355435,42.1838993 C21.1856274,42.2442198 21.2731296,42.3348325 21.3981028,42.4551569 C21.5233913,42.5759562 21.7559949,42.7639895 22.0959136,43.0206287 C22.4359374,43.2768985 22.8060745,43.5176529 23.2062725,43.7439471 C23.606418,43.969872 24.1139836,44.1932637 24.7292848,44.4143334 C25.3445859,44.6350336 25.9821174,44.7906637 26.6423521,44.8810126 L26.6423521,47.5177525 C26.6423521,47.6485261 26.6899134,47.7614094 26.7848783,47.8569301 C26.8799483,47.9525035 26.9924137,48 27.1224321,48 L29.148175,48 C29.2884413,48 29.4035344,47.9548784 29.4934541,47.8645823 C29.5833739,47.7742862 29.6281498,47.6587115 29.6281498,47.5178053 L29.6281498,44.8810653 C31.218904,44.6199403 32.5117827,43.9343552 33.5069435,42.8243628 C34.5022094,41.7143703 35,40.3909604 35,38.8542386 C34.9994745,38.3520954 34.9345704,37.8799805 34.8032907,37.4377356 Z" id="Shape" fill="#C0C7CF" fill-rule="nonzero"></path>
            </g>
        </g>
    </g>
</svg>