<?xml version="1.0" encoding="UTF-8"?>
<svg width="110px" height="30px" viewBox="0 0 110 30" version="1.1" xmlns="http://www.w3.org/2000/svg" xmlns:xlink="http://www.w3.org/1999/xlink">
    <!-- Generator: Sketch 48.1 (47250) - http://www.bohemiancoding.com/sketch -->
    <title>Logo</title>
    <desc>Created with Sketch.</desc>
    <defs></defs>
    <g id="Menu" stroke="none" stroke-width="1" fill="none" fill-rule="evenodd" transform="translate(-585.000000, -8.000000)">
        <g id="Logo" transform="translate(585.000000, 8.000000)">
            <g>
                <polygon id="Fill-4" fill="#FFFFFF" points="0 25.3125 0 11.25 1.955083 11.25 1.955083 18.2237642 9.29900064 11.25 11.9517076 11.25 5.74686871 16.9539228 12.2222222 25.3125 9.64003713 25.3125 4.38947356 18.2013195 1.955083 20.4396025 1.955083 25.3125"></polygon>
                <path d="M13.1623932,21.3356981 L14.9307579,21.1775225 C15.0250707,21.9751287 15.2391237,22.5963808 15.5732637,23.0413971 C15.9071726,23.4862954 16.3846311,23.843961 17.0055236,24.1141579 C17.6264161,24.3845909 18.3260181,24.5196303 19.1040986,24.5196303 C20.2200176,24.5196303 21.0864008,24.291102 21.7034791,23.8339275 C22.3204419,23.3767529 22.6289233,22.7830044 22.6289233,22.052918 C22.6289233,21.6253718 22.5169269,21.2521247 22.292934,20.9330587 C22.0689412,20.6139926 21.730987,20.3524128 21.2791872,20.1484371 C20.8270406,19.9445795 19.8506259,19.6562043 18.3494807,19.2836654 C17.013383,18.9510246 16.0625113,18.6164951 15.4966346,18.280313 C14.9307579,17.944131 14.490516,17.5174111 14.1762556,16.9997993 C13.8617641,16.4824236 13.7046917,15.8972921 13.7046917,15.244759 C13.7046917,14.0714269 14.1566071,13.1123401 15.060438,12.3672624 C15.9641532,11.6225388 17.1824756,11.25 18.7150584,11.25 C19.7681022,11.25 20.6896167,11.4247014 21.4794863,11.7741041 C22.2693558,12.1235068 22.8823889,12.6244747 23.3185856,13.2770079 C23.7547822,13.9296591 23.9884837,14.6976368 24.0200369,15.580941 L22.2163049,15.7192856 C22.1219921,14.7767246 21.7860028,14.0779192 21.208337,13.6231054 C20.6306712,13.1682917 19.8190727,12.9408258 18.7740038,12.9408258 C17.712985,12.9408258 16.9033514,13.1403159 16.3454496,13.5390599 C15.7873168,13.937804 15.5084237,14.4535271 15.5084237,15.0862293 C15.5084237,15.6730134 15.7126525,16.1277091 16.1216879,16.4505524 C16.5301455,16.7736319 17.4495796,17.1007248 18.8792967,17.431595 C20.2774606,17.756209 21.2594231,18.0377379 21.8250687,18.2759455 C22.6891402,18.6468318 23.341817,19.1333986 23.7827524,19.7360003 C24.2238034,20.3386019 24.4444444,21.0578285 24.4444444,21.8941522 C24.4444444,22.7238656 24.2124766,23.479567 23.7488877,24.1610204 C23.2850676,24.8424737 22.6543508,25.3610298 21.8567374,25.7166887 C21.0590084,26.0721115 20.098197,26.25 18.9744185,26.25 C17.221657,26.25 15.8246489,25.8084069 14.7833941,24.9249847 C13.7419082,24.0416804 13.2015746,22.8453303 13.1623932,21.3356981" id="Fill-5" fill="#FFFFFF"></path>
                <path d="M27.2649573,25.3125 L27.2649573,11.25 L30.202053,11.25 L33.7073703,21.2069582 L34.4084338,23.288472 C34.5805382,22.7705269 34.8428499,22.0192032 35.1954892,21.0342716 L38.7376602,11.25 L41.3675214,11.25 L41.3675214,25.3125 L39.4879824,25.3125 L39.4879824,13.5514945 L35.1815185,25.3125 L33.4260296,25.3125 L29.1444962,13.3491489 L29.1444962,25.3125 L27.2649573,25.3125 Z" id="Fill-6" fill="#FFFFFF"></path>
                <polygon id="Fill-7" fill="#FFFFFF" points="43.2478632 21.5625 48.8888889 21.5625 48.8888889 19.6875 43.2478632 19.6875"></polygon>
                <path d="M51.8420451,21.2399919 C51.8420451,22.3020901 52.1380724,23.1555727 52.7301269,23.8000805 C53.3221814,24.4448277 54.0088485,24.7670816 54.7903605,24.7670816 C55.4771437,24.7670816 56.0909069,24.4631294 56.6317661,23.855225 C57.172277,23.2474402 57.4427646,22.412379 57.4427646,21.3501611 C57.4427646,20.3080392 57.1743666,19.500012 56.6376866,18.9253616 C56.1007744,18.3509506 55.4455674,18.0636254 54.6720657,18.0636254 C53.9142359,18.0636254 53.2529923,18.3491563 52.6886831,18.9203376 C52.1241417,19.491519 51.8420451,20.2647371 51.8420451,21.2399919 M58.9702652,14.897307 L57.229625,15.0375006 C57.064198,14.2860532 56.8200626,13.750638 56.4971027,13.4313745 C56.0322819,12.9658168 55.4729645,12.7329184 54.8191506,12.7329184 C53.8027903,12.7329184 52.9874965,13.2674963 52.3732689,14.3361736 C51.8452956,15.2579587 51.577478,16.6207794 51.5697001,18.4242771 C51.9722971,17.7831186 52.4774009,17.297106 53.0853596,16.9663591 C53.6930861,16.6357318 54.3363359,16.4704182 55.0154573,16.4704182 C56.1441918,16.4704182 57.1289757,16.9030806 57.9696931,17.7680465 C58.8104105,18.6332517 59.2307692,19.7905668 59.2307692,21.2399919 C59.2307692,22.2219453 59.019487,23.1121509 58.5972709,23.9103694 C58.1749387,24.7087075 57.6322221,25.2980709 56.969121,25.6788186 C56.30602,26.059686 55.5758194,26.25 54.7786355,26.25 C53.3416844,26.25 52.1576914,25.7023836 51.2263085,24.606792 C50.2946933,23.5112003 49.8290598,21.6842573 49.8290598,19.1257237 C49.8290598,16.2868028 50.30607,14.2645218 51.2599743,13.0585217 C52.2138786,11.8528804 53.4357165,11.25 54.9258365,11.25 C56.0059296,11.25 56.910496,11.5614882 57.6397679,12.184345 C58.3692719,12.8070823 58.8126162,13.7114029 58.9702652,14.897307" id="Fill-8" fill="#FFFFFF"></path>
                <path d="M63.1240964,21.2399919 C63.1240964,22.3020901 63.4201237,23.1555727 64.0120621,23.8000805 C64.6042327,24.4448277 65.2910159,24.7670816 66.0724117,24.7670816 C66.759195,24.7670816 67.3729581,24.4631294 67.9138173,23.855225 C68.4543283,23.2474402 68.7248159,22.412379 68.7248159,21.3501611 C68.7248159,20.3080392 68.4564179,19.500012 67.9197379,18.9253616 C67.3828257,18.3509506 66.7276187,18.0636254 65.9541169,18.0636254 C65.1962872,18.0636254 64.5349275,18.3491563 63.9707344,18.9203376 C63.4063091,19.491519 63.1240964,20.2647371 63.1240964,21.2399919 M70.2523165,14.897307 L68.5116763,15.0375006 C68.3462493,14.2860532 68.1021139,13.750638 67.779154,13.4313745 C67.3143331,12.9658168 66.7550158,12.7329184 66.1012018,12.7329184 C65.0849577,12.7329184 64.2694317,13.2674963 63.6552041,14.3361736 C63.1273469,15.2579587 62.8595293,16.6207794 62.8517513,18.4242771 C63.2543484,17.7831186 63.7594522,17.297106 64.3674109,16.9663591 C64.9751374,16.6357318 65.6183872,16.4704182 66.2975085,16.4704182 C67.426243,16.4704182 68.411027,16.9030806 69.2517444,17.7680465 C70.0924618,18.6332517 70.5128205,19.7905668 70.5128205,21.2399919 C70.5128205,22.2219453 70.3015383,23.1121509 69.8793222,23.9103694 C69.45699,24.7087075 68.9142734,25.2980709 68.2511723,25.6788186 C67.5880713,26.059686 66.8578707,26.25 66.0606867,26.25 C64.6238517,26.25 63.4397427,25.7023836 62.5083597,24.606792 C61.5768607,23.5112003 61.1111111,21.6842573 61.1111111,19.1257237 C61.1111111,16.2868028 61.5881213,14.2645218 62.5420256,13.0585217 C63.4959299,11.8528804 64.7178839,11.25 66.2078877,11.25 C67.2879809,11.25 68.1925473,11.5614882 68.9218192,12.184345 C69.6513232,12.8070823 70.0946675,13.7114029 70.2523165,14.897307" id="Fill-9" fill="#FFFFFF"></path>
                <path d="M86.6989274,15.8359303 L90.2016675,10.7683491 L96.1412145,19.0030918 L86.6989274,15.8359303 Z M92.6383562,8.39297794 L96.5980936,4.11730993 L94.1612867,0.633432297 L89.8970814,4.27566801 L85.480583,0 L82.8916012,2.37537111 L87.3080996,7.12611334 C87.3080996,7.12611334 70.8603322,28.8214152 71.4695044,29.7715637 C71.8920024,30.4303038 78.1703985,29.4548475 78.1703985,29.4548475 L84.2622386,19.478166 C84.2622386,19.478166 101.01471,23.7539569 101.92835,29.9299218 L110,28.1878601 L92.6383562,8.39297794 Z" id="Fill-25" fill="#FFFFFE"></path>
                <path d="M82.7350427,18.571162 L84.1177522,16.875 C84.1177522,16.875 100.862576,21.1925033 106.239316,28.4398605 C106.239316,28.4398605 102.410348,29.1328478 102.398788,29.0566467 C101.937924,26.011235 95.3704713,21.6165737 82.7350427,18.571162" id="Fill-27" fill="#E5CF86"></path>
                <path d="M83.6752137,3.57420377 L85.4777716,1.875 L109.059829,28.4446077 L105.454946,29.0625 C105.454946,29.0625 99.1464016,20.7209542 83.8254171,17.4768999 L84.5764343,15.9321692 L94.9407052,19.6395229 L97.1936403,20.4118882 L96.1422162,19.1761037 C96.1422162,19.1761037 84.5764343,3.11078456 83.6752137,3.57420377" id="Fill-29" fill="#AC9963"></path>
                <path d="M72.3931624,29.0625 C72.3931624,29.0625 83.5841016,10.3230192 94.0188962,1.875 C94.0188962,1.875 96.3036376,4.0424451 95.8337604,4.48620592 C85.0963906,14.6239481 80.5594061,23.9935693 77.8372857,28.9088997 L72.3931624,29.0625 Z" id="Fill-31" fill="#E5CF86"></path>
                <path d="M77.8244377,29.8246058 C78.7356694,27.7701396 85.1144093,16.2342104 95.8974359,4.38210571 L95.4417022,3.75 C95.4417022,3.75 79.7988909,21.1330297 76.1538462,29.8246058 C76.1538462,29.8246058 77.6494727,30.2192428 77.8244377,29.8246058" id="Fill-33" fill="#AC9963"></path>
                <path d="M92.1367992,24.5110284 C89.558924,23.1803998 87.2843283,24.5110284 87.2843283,24.5110284 C89.2556446,20.0201571 94.7146744,25.8416569 92.1367992,24.5110284 M84.251534,19.6875 L82.8866589,21.6834428 L86.2228503,21.3507856 L80.9153426,25.6753283 L78.034188,30 C78.034188,30 85.1613723,20.8517999 101.538462,29.8336714 C101.538462,29.8336714 99.1123437,23.3467284 84.251534,19.6875" id="Fill-35" fill="#B4302F"></path>
                <path d="M93.0769231,19.1305024 L97.311119,20.4748696 L93.7281046,15.9375 L98.613861,20.9790073 C98.613861,20.9790073 99.1024367,21.8192368 97.9625532,21.483145 C96.8225433,21.1470532 93.0769231,19.1305024 93.0769231,19.1305024" id="Fill-37" fill="#897B53"></path>
            </g>
        </g>
    </g>
</svg>