<?xml version="1.0" encoding="UTF-8"?>
<svg width="26px" height="20px" viewBox="0 0 26 20" version="1.1" xmlns="http://www.w3.org/2000/svg" xmlns:xlink="http://www.w3.org/1999/xlink">
    <!-- Generator: Sketch 48.2 (47327) - http://www.bohemiancoding.com/sketch -->
    <title>Logo</title>
    <desc>Created with Sketch.</desc>
    <defs></defs>
    <g id="Global-Nav" stroke="none" stroke-width="1" fill="none" fill-rule="evenodd" transform="translate(-19.000000, -24.000000)">
        <g id="Logo" transform="translate(19.000000, 24.000000)">
            <path d="M10.2834007,10.5572869 L12.6460028,7.17889937 L16.6522338,12.6687278 L10.2834007,10.5572869 Z M14.289552,5.59531863 L16.9603993,2.74487329 L15.3167703,0.422288198 L12.4405591,2.85044534 L9.46162604,0 L7.71535494,1.58358074 L10.694288,4.75074223 C10.694288,4.75074223 -0.399749294,19.2142768 0.0111380244,19.8477091 C0.296113403,20.2868692 4.53089853,19.636565 4.53089853,19.636565 L8.63985141,12.985444 C8.63985141,12.985444 19.9394121,15.8359712 20.5556633,19.9532812 L26,18.7919067 L14.289552,5.59531863 Z" id="Fill-25" fill="#FFFFFE"></path>
            <path d="M8,12.1133781 L8.94124805,11 C8.94124805,11 20.3399064,13.8340534 24,18.591293 C24,18.591293 21.3935169,19.046177 21.3856474,18.9961578 C21.0719251,16.9971184 16.6012808,14.1124176 8,12.1133781" id="Fill-27" fill="#E5CF86"></path>
            <path d="M9,2.12499008 L10.2071675,1 L26,18.5909127 L23.585821,19 C23.585821,19 19.3610077,13.4773214 9.10059079,11.3295337 L9.60354475,10.3068155 L16.5444655,12.7613393 L18.0532494,13.2726984 L17.3491138,12.4545238 C17.3491138,12.4545238 9.60354475,1.81817461 9,2.12499008" id="Fill-29" fill="#AC9963"></path>
            <path d="M1,19 C1,19 8.61797749,6.59317131 15.7212268,1 C15.7212268,1 17.2765126,2.43499814 16.9566543,2.7287984 C9.64743391,9.44068287 6.55898479,15.6440183 4.70596324,18.898306 L1,19 Z" id="Fill-31" fill="#E5CF86"></path>
            <path d="M4.09998687,19.8864114 C4.69997971,18.5558999 8.90000716,11.0850124 16,3.4093637 L15.699926,3 C15.699926,3 5.40004893,14.2575811 3,19.8864114 C3,19.8864114 3.98478266,20.1419858 4.09998687,19.8864114" id="Fill-33" fill="#AC9963"></path>
            <path d="M13.600032,16.2741526 C11.8452021,15.3709381 10.2968228,16.2741526 10.2968228,16.2741526 C11.6387515,13.2258036 15.354862,17.1773671 13.600032,16.2741526 M8.23231696,13 L7.30320927,14.3548218 L9.57424573,14.1290181 L5.96128051,17.0644653 L4,20 C4,20 8.8516687,13.7903127 20,19.8870982 C20,19.8870982 18.3484754,15.4838399 8.23231696,13" id="Fill-35" fill="#B4302F"></path>
            <path d="M15,11.7029346 L17.2518224,12.4199305 L15.3463102,10 L17.9446443,12.6888039 C17.9446443,12.6888039 18.2044777,13.1369263 17.5982669,12.9576773 C16.991989,12.7784284 15,11.7029346 15,11.7029346" id="Fill-37" fill="#897B53"></path>
        </g>
    </g>
</svg>