<?xml version="1.0" encoding="UTF-8"?>
<svg width="35px" height="35px" viewBox="0 0 35 35" version="1.1" xmlns="http://www.w3.org/2000/svg" xmlns:xlink="http://www.w3.org/1999/xlink">
    <!-- Generator: Sketch 50.2 (55047) - http://www.bohemiancoding.com/sketch -->
    <title>contact address</title>
    <desc>Created with Sketch.</desc>
    <defs></defs>
    <g id="Client-Dashbaord" stroke="none" stroke-width="1" fill="none" fill-rule="evenodd">
        <g id="contact-address">
            <rect id="Rectangle-11" fill="#7A3900" x="0" y="0" width="35" height="35" rx="3"></rect>
            <g id="noun_1012362_cc" transform="translate(5.250000, 5.250000)" fill="#FFFFFF" fill-rule="nonzero">
                <path d="M1.53125,16.84375 C0.685563977,16.84375 1.13335267e-16,17.529314 0,18.375 C-1.13335267e-16,19.220686 0.685563977,19.90625 1.53125,19.90625 L3.0625,19.90625 L3.0625,22.203125 C3.0625,23.471654 4.09084597,24.5 5.359375,24.5 L22.203125,24.5 C23.471654,24.5 24.5,23.471654 24.5,22.203125 L24.5,2.296875 C24.5,1.02834597 23.471654,1.13335267e-16 22.203125,0 L5.359375,0 C4.09084597,-1.13335267e-16 3.0625,1.02834597 3.0625,2.296875 L3.0625,4.59375 L1.53125,4.59375 C0.685563977,4.59375 1.13335267e-16,5.27931398 0,6.125 C-1.13335267e-16,6.97068602 0.685563977,7.65625 1.53125,7.65625 L3.0625,7.65625 L3.0625,10.71875 L1.53125,10.71875 C0.685563995,10.71875 4.56348063e-08,11.404314 4.56348062e-08,12.25 C4.5634806e-08,13.095686 0.685563995,13.78125 1.53125,13.78125 L3.0625,13.78125 L3.0625,16.84375 L1.53125,16.84375 Z M9.1875,16.84375 C9.18898946,14.9301565 10.3765703,13.2179252 12.1683333,12.5460417 C11.005062,11.8253306 10.461102,10.4203452 10.8357746,9.10419734 C11.2104472,7.78804949 12.4128112,6.8801965 13.78125,6.8801965 C15.1496888,6.8801965 16.3520528,7.78804949 16.7267254,9.10419734 C17.101398,10.4203452 16.557438,11.8253306 15.3941667,12.5460417 C17.1859297,13.2179252 18.3735105,14.9301565 18.375,16.84375 L18.375,17.609375 C18.375,18.032218 18.032218,18.375 17.609375,18.375 L9.953125,18.375 C9.53028199,18.375 9.1875,18.032218 9.1875,17.609375 L9.1875,16.84375 Z" id="Shape"></path>
            </g>
        </g>
    </g>
</svg>