<?xml version="1.0" encoding="UTF-8"?>
<svg width="35px" height="35px" viewBox="0 0 35 35" version="1.1" xmlns="http://www.w3.org/2000/svg" xmlns:xlink="http://www.w3.org/1999/xlink">
    <!-- Generator: Sketch 50.2 (55047) - http://www.bohemiancoding.com/sketch -->
    <title>container</title>
    <desc>Created with Sketch.</desc>
    <defs></defs>
    <g id="Client-Dashbaord" stroke="none" stroke-width="1" fill="none" fill-rule="evenodd">
        <g id="container">
            <rect id="Rectangle-11" fill="#689238" x="0" y="0" width="35" height="35" rx="3"></rect>
            <path d="M24.4438202,17.00314 L10.5540353,17.00314 L17.4986596,12.01837 L24.4438202,17.00314 Z M8.60409327,19.63934 L9.99216032,19.63934 L9.99216032,27.1138 L8.60409327,27.1138 L8.60409327,19.63934 Z M11.8648981,19.63934 L13.2529652,19.63934 L13.2529652,27.1138 L11.8648981,27.1138 L11.8648981,19.63934 Z M15.1273114,19.63934 L16.5153785,19.63934 L16.5153785,27.1138 L15.1273114,27.1138 L15.1273114,19.63934 Z M18.3891886,19.63934 L19.7772556,19.63934 L19.7772556,27.1138 L18.3891886,27.1138 L18.3891886,19.63934 Z M24.9129429,19.63934 L26.3010099,19.63934 L26.3010099,27.1138 L24.9129429,27.1138 L24.9129429,19.63934 Z M5.25053614,29.75 L29.75,29.75 L29.75,17.00314 L26.9872694,17.00314 L19.0475688,11.30444 C19.346735,11.01338 19.5445708,10.63363 19.5863897,10.20047 L18.0256855,10.07699 C18.0026315,10.32003 17.7581515,10.47242 17.5040211,10.47144 C17.2150415,10.46997 16.9780675,10.25535 16.9780675,9.99026 C16.9780675,9.72909 17.2048548,9.51251 17.492226,9.50957 L18.2696293,9.50124 L18.2696293,7.67942 L18.773065,7.67942 L18.773065,5.25 L16.1931582,5.25 L16.1931582,7.67942 L16.6960577,7.67942 L16.6960577,8.2243 C15.9181183,8.52124 15.4050321,9.21606 15.4050321,9.99075 C15.4050321,10.49545 15.6173436,10.95262 15.9647625,11.29415 L8.01058603,17.00314 L5.25,17.00314 L5.25160842,23.37608 L5.25053614,29.75 Z M21.6505296,19.63934 L23.0385966,19.63934 L23.0385966,27.1138 L21.6505296,27.1138 L21.6505296,19.63934 Z" id="Shape" fill="#FFFFFF" fill-rule="nonzero"></path>
        </g>
    </g>
</svg>