<?xml version="1.0" encoding="UTF-8"?>
<svg width="35px" height="35px" viewBox="0 0 35 35" version="1.1" xmlns="http://www.w3.org/2000/svg" xmlns:xlink="http://www.w3.org/1999/xlink">
    <!-- Generator: Sketch 50.2 (55047) - http://www.bohemiancoding.com/sketch -->
    <title>category</title>
    <desc>Created with Sketch.</desc>
    <defs></defs>
    <g id="Client-Dashbaord" stroke="none" stroke-width="1" fill="none" fill-rule="evenodd">
        <g id="category">
            <rect id="Rectangle-11" fill="#F47463" x="0" y="0" width="35" height="35" rx="3"></rect>
            <g id="Group" transform="translate(7.000000, 7.000000)" fill="#FFFFFF" fill-rule="nonzero">
                <path d="M7.9544729,0 L1.59098165,0 C1.16001007,0 0.787197885,0.189051486 0.472327437,0.566997743 C0.15745699,0.944369376 0,1.39215864 0,1.90905957 L0,7.6362905 C0,8.15329591 0.15745699,8.60082398 0.472327437,8.9784568 C0.787154352,9.3564553 1.15996653,9.54545455 1.59098165,9.54545455 L7.9544729,9.54545455 C8.38544448,9.54545455 8.75825666,9.35629858 9.07312711,8.9784568 C9.38799756,8.60082398 9.54545455,8.15329591 9.54545455,7.6362905 L9.54545455,1.90905957 C9.54545455,1.39215864 9.38799756,0.944526091 9.07312711,0.566945505 C8.75825666,0.188894771 8.38531388,0 7.9544729,0 Z" id="Shape"></path>
                <path d="M7.9544729,11.4545455 L1.59098165,11.4545455 C1.16001007,11.4545455 0.787197885,11.6437025 0.472327437,12.0214418 C0.15745699,12.3991812 0,12.8466595 0,13.3636155 L0,19.0908777 C0,19.607886 0.15745699,20.0555732 0.472327437,20.4331036 C0.787154352,20.8109997 1.15996653,21 1.59098165,21 L7.9544729,21 C8.38544448,21 8.75825666,20.811052 9.07312711,20.4331036 C9.38799756,20.055521 9.54545455,19.607886 9.54545455,19.0908777 L9.54545455,13.3636155 C9.54545455,12.8466595 9.38799756,12.3991812 9.07312711,12.0214418 C8.75825666,11.643389 8.38531388,11.4545455 7.9544729,11.4545455 Z" id="Shape"></path>
                <path d="M20.5275855,0.56699464 C20.2130633,0.188893737 19.8399029,0 19.4090619,0 L13.04544,0 C12.6146426,0 12.2416998,0.189050452 11.92696,0.56699464 C11.612046,0.944364208 11.4545455,1.39220326 11.4545455,1.90910136 L11.4545455,7.63630095 C11.4545455,8.15330353 11.6120024,8.60082915 11.92696,8.97845991 C12.2416998,9.35645633 12.6146426,9.54545455 13.04544,9.54545455 L19.4090619,9.54545455 C19.8399029,9.54545455 20.2131068,9.35629962 20.5275855,8.97845991 C20.8424995,8.60082915 21,8.15330353 21,7.63630095 L21,1.90904912 C21,1.39215102 20.8426301,0.944677637 20.5275855,0.56699464 Z" id="Shape"></path>
                <path d="M19.4090619,11.4545455 L13.04544,11.4545455 C12.6146426,11.4545455 12.2416998,11.6437025 11.92696,12.0214418 C11.612046,12.3991812 11.4545455,12.8466595 11.4545455,13.3636155 L11.4545455,19.0908777 C11.4545455,19.607886 11.6120024,20.0555732 11.92696,20.4331036 C12.2416998,20.8109997 12.6146426,21 13.04544,21 L19.4090619,21 C19.8399029,21 20.2131068,20.811052 20.5275855,20.4331036 C20.8424995,20.055521 21,19.607886 21,19.0908777 L21,13.3636155 C21,12.8466595 20.8426736,12.3991812 20.5275855,12.0214418 C20.2130633,11.643389 19.8402076,11.4545455 19.4090619,11.4545455 Z" id="Shape"></path>
            </g>
        </g>
    </g>
</svg>