<?xml version="1.0" encoding="UTF-8"?>
<svg width="75px" height="90px" viewBox="0 0 75 90" version="1.1" xmlns="http://www.w3.org/2000/svg" xmlns:xlink="http://www.w3.org/1999/xlink">
    <!-- Generator: Sketch 50.2 (55047) - http://www.bohemiancoding.com/sketch -->
    <title>Invoice icon@1x</title>
    <desc>Created with Sketch.</desc>
    <defs></defs>
    <g id="Client-Dashbaord" stroke="none" stroke-width="1" fill="none" fill-rule="evenodd">
        <g id="no-invoice" transform="translate(-603.000000, -220.000000)">
            <g id="Invoice-icon" transform="translate(603.000000, 220.000000)">
                <path d="M10,5 C7.23857625,5 5,7.23857625 5,10 L5,80 C5,82.7614237 7.23857625,85 10,85 L65,85 C67.7614237,85 70,82.7614237 70,80 L70,10 C70,7.23857625 67.7614237,5 65,5 L10,5 Z M10,0 L65,0 C70.5228475,-1.01453063e-15 75,4.4771525 75,10 L75,80 C75,85.5228475 70.5228475,90 65,90 L10,90 C4.4771525,90 6.76353751e-16,85.5228475 0,80 L0,10 C-6.76353751e-16,4.4771525 4.4771525,1.01453063e-15 10,0 Z" id="Rectangle" fill="#DCDEDE" fill-rule="nonzero"></path>
                <path d="M29.3436019,30.8990347 C27.9299115,30.1400255 26.4269353,29.5617327 24.9388401,28.961754 C24.0757449,28.6147784 23.2498521,28.2099734 22.5206854,27.646138 C21.0846736,26.5329244 21.3599712,24.7257596 23.0415187,24.0101223 C23.5177092,23.8077199 24.0162211,23.7426619 24.5221735,23.7137473 C26.4715782,23.6125461 28.3242567,23.9595217 30.0876495,24.7835889 C30.9656257,25.1956225 31.2558042,25.0655066 31.5534233,24.1763815 C31.8659233,23.2366558 32.1263399,22.2824727 32.4165185,21.3355184 C32.6099709,20.6993963 32.3718756,20.2801341 31.7543161,20.0126737 C30.6233638,19.5283535 29.4626495,19.1813779 28.2424115,18.9934327 C26.6501496,18.754887 26.6501496,18.7476583 26.6427091,17.1934965 C26.6352686,15.0032127 26.6352686,15.0032127 24.3733639,15.0032127 C24.045983,15.0032127 23.7186021,14.9959841 23.3912211,15.0032127 C22.3346735,15.0321274 22.1561021,15.2128439 22.1263402,16.2465422 C22.1114592,16.7091764 22.1263402,17.1718106 22.1188997,17.6416734 C22.1114592,19.0151187 22.1040188,18.9934327 20.7498521,19.4705242 C17.4760427,20.6271097 15.4522332,22.7957075 15.2364594,26.2654641 C15.043007,29.3376443 16.6947927,31.4122695 19.2915188,32.9230593 C20.8912212,33.8555564 22.6620545,34.4049345 24.358483,35.1350291 C25.0206854,35.4169468 25.6531258,35.7422365 26.203721,36.1904134 C27.8331853,37.4988007 27.5355662,39.6746272 25.6010425,40.4986944 C24.5668163,40.9396426 23.4730663,41.0480725 22.3495545,40.910728 C20.6159236,40.7010968 18.9566974,40.2601486 17.3941975,39.4722247 C16.4790189,39.0095905 16.2111618,39.1324777 15.8986618,40.0938894 C15.6308046,40.9251853 15.3927094,41.7637098 15.1546142,42.6022343 C14.8346737,43.7299051 14.9537213,43.9973655 16.0623523,44.5250576 C17.4760427,45.1900943 18.9864593,45.5298413 20.5266379,45.7683871 C21.731995,45.9563322 21.7691973,46.0069328 21.7840783,47.2213476 C21.7915188,47.7707257 21.7915188,48.3273325 21.7989592,48.8767106 C21.8063997,49.5706619 22.1486616,49.9754668 22.8852687,49.9899241 C23.7186021,50.0043815 24.5593758,50.0043815 25.3927092,49.9826955 C26.0772329,49.9682382 26.4269353,49.6068052 26.4269353,48.9345399 C26.4269353,48.1827593 26.4641377,47.4237501 26.4343758,46.6719695 C26.3971734,45.9057316 26.7394353,45.515384 27.4983639,45.3129815 C29.2468757,44.8503473 30.7349709,43.9395362 31.8808042,42.5805483 C35.065328,38.8216454 33.8525304,33.3206356 29.3436019,30.8990347 Z" id="Shape" fill-opacity="0.499348958" fill="#F47463" fill-rule="nonzero"></path>
                <path d="M12.5,55 L62.5,55 L62.5,62.5 L12.5,62.5 L12.5,55 Z M12.5,67.5 L36.4130435,67.5 L36.4130435,75 L12.5,75 L12.5,67.5 Z M38.5869565,42.5 L62.5,42.5 L62.5,50 L38.5869565,50 L38.5869565,42.5 Z" id="Combined-Shape" fill-opacity="0.499348958" fill="#F47463"></path>
            </g>
        </g>
    </g>
</svg>