<?xml version="1.0" encoding="UTF-8"?>
<svg width="35px" height="35px" viewBox="0 0 35 35" version="1.1" xmlns="http://www.w3.org/2000/svg" xmlns:xlink="http://www.w3.org/1999/xlink">
    <!-- Generator: Sketch 50.2 (55047) - http://www.bohemiancoding.com/sketch -->
    <title>roles</title>
    <desc>Created with Sketch.</desc>
    <defs>
        <path d="M10.5,10.5 C13.400625,10.5 15.75,8.150625 15.75,5.25 C15.75,2.349375 13.400625,0 10.5,0 C7.599375,0 5.25,2.349375 5.25,5.25 C5.25,8.150625 7.599375,10.5 10.5,10.5 Z M10.5,13.125 C6.995625,13.125 0,14.88375 0,18.375 L0,21 L21,21 L21,18.375 C21,14.88375 14.004375,13.125 10.5,13.125 Z" id="path-1"></path>
    </defs>
    <g id="Client-Dashbaord" stroke="none" stroke-width="1" fill="none" fill-rule="evenodd">
        <g id="roles">
            <rect id="Rectangle-11" fill="#F85359" x="0" y="0" width="35" height="35" rx="3"></rect>
            <g id="ic_person_24px" transform="translate(7.000000, 7.000000)">
                <mask id="mask-2" fill="white">
                    <use xlink:href="#path-1"></use>
                </mask>
                <g id="Shape" fill-rule="nonzero"></g>
                <g id="c/#000000/0.54" mask="url(#mask-2)" fill="#FFFFFF">
                    <g transform="translate(-5.250000, -5.250000)" id="Rectangle">
                        <rect x="0" y="0" width="32.3076923" height="32.3076923"></rect>
                    </g>
                </g>
            </g>
        </g>
    </g>
</svg>