<?xml version="1.0" encoding="UTF-8"?>
<svg width="35px" height="35px" viewBox="0 0 35 35" version="1.1" xmlns="http://www.w3.org/2000/svg" xmlns:xlink="http://www.w3.org/1999/xlink">
    <!-- Generator: Sketch 50.2 (55047) - http://www.bohemiancoding.com/sketch -->
    <title>shipments</title>
    <desc>Created with Sketch.</desc>
    <defs>
        <path d="M23.4143519,5.13333333 L19.9021991,5.13333333 L19.9021991,0.641666667 L3.51215278,0.641666667 C2.22436343,0.641666667 1.17071759,1.65229167 1.17071759,2.8875 L1.17071759,15.2395833 L3.51215278,15.2395833 C3.51215278,17.103625 5.08091435,18.6083333 7.02430556,18.6083333 C8.96769676,18.6083333 10.5364583,17.103625 10.5364583,15.2395833 L17.5607639,15.2395833 C17.5607639,17.103625 19.1295255,18.6083333 21.0729167,18.6083333 C23.0163079,18.6083333 24.5850694,17.103625 24.5850694,15.2395833 L26.9265046,15.2395833 L26.9265046,9.625 L23.4143519,5.13333333 Z M7.02430556,16.9239583 C6.05260995,16.9239583 5.26822917,16.1716042 5.26822917,15.2395833 C5.26822917,14.3075625 6.05260995,13.5552083 7.02430556,13.5552083 C7.99600116,13.5552083 8.78038194,14.3075625 8.78038194,15.2395833 C8.78038194,16.1716042 7.99600116,16.9239583 7.02430556,16.9239583 Z M22.8289931,6.81770833 L25.1235995,9.625 L19.9021991,9.625 L19.9021991,6.81770833 L22.8289931,6.81770833 Z M21.0729167,16.9239583 C20.1012211,16.9239583 19.3168403,16.1716042 19.3168403,15.2395833 C19.3168403,14.3075625 20.1012211,13.5552083 21.0729167,13.5552083 C22.0446123,13.5552083 22.8289931,14.3075625 22.8289931,15.2395833 C22.8289931,16.1716042 22.0446123,16.9239583 21.0729167,16.9239583 Z" id="path-1"></path>
    </defs>
    <g id="Client-Dashbaord" stroke="none" stroke-width="1" fill="none" fill-rule="evenodd">
        <g id="shipments">
            <rect id="Rectangle-11" fill="#F7981C" x="0" y="0" width="35" height="35" rx="3"></rect>
            <g id="ic/local_shipping" transform="translate(2.625000, 7.875000)">
                <g id="ic_local_shipping_24px" transform="translate(0.826389, 0.000000)">
                    <mask id="mask-2" fill="white">
                        <use xlink:href="#path-1"></use>
                    </mask>
                    <use id="Shape" fill="#FFFFFF" fill-rule="nonzero" xlink:href="#path-1"></use>
                </g>
            </g>
        </g>
    </g>
</svg>