<?xml version="1.0" encoding="UTF-8"?>
<svg width="52px" height="35px" viewBox="0 0 52 35" version="1.1" xmlns="http://www.w3.org/2000/svg" xmlns:xlink="http://www.w3.org/1999/xlink">
    <!-- Generator: Sketch 50.2 (55047) - http://www.bohemiancoding.com/sketch -->
    <title>Users</title>
    <desc>Created with Sketch.</desc>
    <defs></defs>
    <g id="Staff-" stroke="none" stroke-width="1" fill="none" fill-rule="evenodd" fill-opacity="0.855751812">
        <g id="Artboard-6" transform="translate(-935.000000, -416.000000)" fill="#4A4A4A" fill-rule="nonzero">
            <g id="Group-12" transform="translate(896.000000, 416.000000)">
                <g id="Users" transform="translate(39.000000, 0.000000)">
                    <path d="M35.4545455,15 C39.3781818,15 42.5218182,11.65 42.5218182,7.5 C42.5218182,3.35 39.3781818,0 35.4545455,0 C31.5309091,0 28.3636364,3.35 28.3636364,7.5 C28.3636364,11.65 31.5309091,15 35.4545455,15 Z M16.5454545,15 C20.4690909,15 23.6127273,11.65 23.6127273,7.5 C23.6127273,3.35 20.4690909,0 16.5454545,0 C12.6218182,0 9.45454545,3.35 9.45454545,7.5 C9.45454545,11.65 12.6218182,15 16.5454545,15 Z M16.5454545,20 C11.0381818,20 0,22.925 0,28.75 L0,35 L33.0909091,35 L33.0909091,28.75 C33.0909091,22.925 22.0527273,20 16.5454545,20 Z M35.4545455,20 C34.7690909,20 33.9890909,20.05 33.1618182,20.125 C35.9036364,22.225 37.8181818,25.05 37.8181818,28.75 L37.8181818,35 L52,35 L52,28.75 C52,22.925 40.9618182,20 35.4545455,20 Z" id="Shape"></path>
                </g>
            </g>
        </g>
    </g>
</svg>