<?xml version="1.0" encoding="UTF-8"?>
<svg width="22px" height="26px" viewBox="0 0 22 26" version="1.1" xmlns="http://www.w3.org/2000/svg" xmlns:xlink="http://www.w3.org/1999/xlink">
    <!-- Generator: Sketch 48.2 (47327) - http://www.bohemiancoding.com/sketch -->
    <title>Orders</title>
    <desc>Created with Sketch.</desc>
    <defs></defs>
    <g id="Global-Nav" stroke="none" stroke-width="1" fill="none" fill-rule="evenodd" transform="translate(-21.000000, -148.000000)" opacity="0.600000024">
        <g id="Orders" transform="translate(21.000000, 148.000000)" fill="#FFFFFF">
            <path d="M3.66666667,1.83333333 C2.65414463,1.83333333 1.83333333,2.65414463 1.83333333,3.66666667 L1.83333333,22.3333333 C1.83333333,23.3458554 2.65414463,24.1666667 3.66666667,24.1666667 L18.3333333,24.1666667 C19.3458554,24.1666667 20.1666667,23.3458554 20.1666667,22.3333333 L20.1666667,3.66666667 C20.1666667,2.65414463 19.3458554,1.83333333 18.3333333,1.83333333 L3.66666667,1.83333333 Z M3.66666667,0.166666667 L18.3333333,0.166666667 C20.26633,0.166666667 21.8333333,1.73367004 21.8333333,3.66666667 L21.8333333,22.3333333 C21.8333333,24.26633 20.26633,25.8333333 18.3333333,25.8333333 L3.66666667,25.8333333 C1.73367004,25.8333333 0.166666667,24.26633 0.166666667,22.3333333 L0.166666667,3.66666667 C0.166666667,1.73367004 1.73367004,0.166666667 3.66666667,0.166666667 Z" id="Rectangle" fill-rule="nonzero"></path>
            <path d="M4.33333333,11.6666667 L17.6666667,11.6666667 L17.6666667,13.3636364 L4.33333333,13.3636364 L4.33333333,11.6666667 Z M4.33333333,14.6363636 L10.3787879,14.6363636 L10.3787879,16.3333333 L4.33333333,16.3333333 L4.33333333,14.6363636 Z M11.6666667,9.66666667 L4.33333333,9.66666667 L4.33333333,5 L11.6666667,5 L11.6666667,9.66666667 Z" id="Combined-Shape"></path>
        </g>
    </g>
</svg>