<?xml version="1.0" encoding="UTF-8"?>
<svg width="52px" height="45px" viewBox="0 0 52 45" version="1.1" xmlns="http://www.w3.org/2000/svg" xmlns:xlink="http://www.w3.org/1999/xlink">
    <!-- Generator: Sketch 48.2 (47327) - http://www.bohemiancoding.com/sketch -->
    <title>choice</title>
    <desc>Created with Sketch.</desc>
    <defs>
        <filter x="-2.5%" y="-3.8%" width="105.0%" height="110.8%" filterUnits="objectBoundingBox" id="filter-1">
            <feOffset dx="0" dy="2" in="SourceAlpha" result="shadowOffsetOuter1"></feOffset>
            <feGaussianBlur stdDeviation="1.5" in="shadowOffsetOuter1" result="shadowBlurOuter1"></feGaussianBlur>
            <feColorMatrix values="0 0 0 0 0   0 0 0 0 0   0 0 0 0 0  0 0 0 0.0746150362 0" type="matrix" in="shadowBlurOuter1" result="shadowMatrixOuter1"></feColorMatrix>
            <feMerge>
                <feMergeNode in="shadowMatrixOuter1"></feMergeNode>
                <feMergeNode in="SourceGraphic"></feMergeNode>
            </feMerge>
        </filter>
    </defs>
    <g id="Overview-Staff-1" stroke="none" stroke-width="1" fill="none" fill-rule="evenodd" transform="translate(-319.000000, -182.000000)">
        <g id="Group" filter="url(#filter-1)" transform="translate(122.000000, 102.000000)" fill="#C0C7CF" fill-rule="nonzero">
            <g id="choice" transform="translate(200.000000, 81.000000)">
                <path d="M18.72,16 L36,16 L36,18.2040816 L18.72,18.2040816 L18.72,16 Z M18.72,21.877551 L36,21.877551 L36,24.0816327 L18.72,24.0816327 L18.72,21.877551 Z M18.72,32.8979592 L36,32.8979592 L36,35.1020408 L18.72,35.1020408 L18.72,32.8979592 Z M18,44.6530612 L35.28,44.6530612 L35.28,46.8571429 L18,46.8571429 L18,44.6530612 Z M18,38.7755102 L35.28,38.7755102 L35.28,40.9795918 L18,40.9795918 L18,38.7755102 Z M18,27.0204082 L35.28,27.0204082 L35.28,29.2244898 L18,29.2244898 L18,27.0204082 Z M18.72,49.7959184 L36,49.7959184 L36,52 L18.72,52 L18.72,49.7959184 Z" id="Combined-Shape"></path>
                <path d="M34.2206261,4.07534304 L34.2206261,0 L11.779224,0 L11.779224,4.07534304 L0,4.07534304 L0,63 L46,63 L46,4.07534304 L34.2206261,4.07534304 Z M34.2206261,13.3270526 L34.2206261,11.3690624 L38.9344753,11.3690624 L38.9344753,55.70658 L7.06552465,55.70658 L7.06552465,11.3690624 L11.7793739,11.3690624 L11.7793739,13.3270526 L34.2206261,13.3270526 Z M14.0289134,2.24454362 L31.9709366,2.24454362 L31.9709366,11.0825089 L14.0289134,11.0825089 L14.0289134,2.24454362 Z M43.7503106,60.7554564 L2.24968945,60.7554564 L2.24968945,6.31988666 L11.779224,6.31988666 L11.779224,9.12436909 L4.81568523,9.12436909 L4.81568523,57.9509739 L41.1840148,57.9509739 L41.1840148,9.12451873 L34.2204761,9.12451873 L34.2204761,6.31988666 L43.7503106,6.31988666 L43.7503106,60.7554564 Z" id="Shape"></path>
                <path d="M17.8888889,5 L29,5 L29,7.21538462 L17.8888889,7.21538462 L17.8888889,5 Z M9,18.9329982 L10.6667158,17.2852864 L12.8332734,19.4273428 L16.2221731,16.0769231 L17.8888889,17.7246348 L12.8332734,22.7230769 L9,18.9329982 Z M12.8332734,34.9350351 L16.2221731,31.5846154 L17.8888889,33.2323271 L12.8332734,38.2307692 L9,34.4406905 L10.6667158,32.7929787 L12.8332734,34.9350351 Z M15.4506906,44.8769231 L17.1481481,46.5691576 L14.7716116,48.9385413 L17.1481481,51.3077654 L15.4506906,53 L13.0739941,50.6307759 L10.6974575,53 L9,51.3077654 L11.3765365,48.9385413 L9,46.5691576 L10.6974575,44.8769231 L13.0739941,47.2461472 L15.4506906,44.8769231 Z" id="Combined-Shape"></path>
            </g>
        </g>
    </g>
</svg>