<?xml version="1.0" encoding="UTF-8"?>
<svg width="22px" height="26px" viewBox="0 0 22 26" version="1.1" xmlns="http://www.w3.org/2000/svg" xmlns:xlink="http://www.w3.org/1999/xlink">
    <!-- Generator: Sketch 48.2 (47327) - http://www.bohemiancoding.com/sketch -->
    <title>Overview</title>
    <desc>Created with Sketch.</desc>
    <defs></defs>
    <g id="Global-Nav" stroke="none" stroke-width="1" fill="none" fill-rule="evenodd" transform="translate(-21.000000, -84.000000)" opacity="0.699999988">
        <g id="Overview" transform="translate(21.000000, 84.000000)" fill="#FFFFFF">
            <path d="M3.66666667,1.82758621 C2.65414463,1.82758621 1.83333333,2.64273673 1.83333333,3.64827586 L1.83333333,22.1862069 C1.83333333,23.191746 2.65414463,24.0068966 3.66666667,24.0068966 L18.3333333,24.0068966 C19.3458554,24.0068966 20.1666667,23.191746 20.1666667,22.1862069 L20.1666667,3.64827586 C20.1666667,2.64273673 19.3458554,1.82758621 18.3333333,1.82758621 L3.66666667,1.82758621 Z M3.66666667,0.172413793 L18.3333333,0.172413793 C20.26633,0.172413793 21.8333333,1.72861025 21.8333333,3.64827586 L21.8333333,22.1862069 C21.8333333,24.1058725 20.26633,25.662069 18.3333333,25.662069 L3.66666667,25.662069 C1.73367004,25.662069 0.166666667,24.1058725 0.166666667,22.1862069 L0.166666667,3.64827586 C0.166666667,1.72861025 1.73367004,0.172413793 3.66666667,0.172413793 Z" id="Rectangle" fill-rule="nonzero"></path>
            <path d="M4.33333333,13.5793103 L7,13.5793103 L7,15.2645768 L4.33333333,15.2645768 L4.33333333,13.5793103 Z M4.33333333,17.8526646 L7,17.8526646 L7,19.537931 L4.33333333,19.537931 L4.33333333,17.8526646 Z M8.33333333,13.5793103 L17.6666667,13.5793103 L17.6666667,15.2645768 L8.33333333,15.2645768 L8.33333333,13.5793103 Z M8.33333333,17.8526646 L17.6666667,17.8526646 L17.6666667,19.537931 L8.33333333,19.537931 L8.33333333,17.8526646 Z M10.3333333,10.9310345 L4.33333333,10.9310345 L4.33333333,4.97241379 L10.3333333,4.97241379 L10.3333333,10.9310345 Z M17.6666667,10.9310345 L11.6666667,10.9310345 L11.6666667,4.97241379 L17.6666667,4.97241379 L17.6666667,10.9310345 Z" id="Combined-Shape"></path>
        </g>
    </g>
</svg>