<?xml version="1.0" encoding="UTF-8"?>
<svg width="38px" height="41px" viewBox="0 0 38 41" version="1.1" xmlns="http://www.w3.org/2000/svg" xmlns:xlink="http://www.w3.org/1999/xlink">
    <!-- Generator: Sketch 48.2 (47327) - http://www.bohemiancoding.com/sketch -->
    <title>package</title>
    <desc>Created with Sketch.</desc>
    <defs></defs>
    <g id="Order-Detail-Staff-3" stroke="none" stroke-width="1" fill="none" fill-rule="evenodd" transform="translate(-357.000000, -789.000000)">
        <g id="package" transform="translate(357.000000, 789.000000)" fill="#8B572A" fill-rule="nonzero">
            <g id="Package-icon">
                <path d="M37.9825768,9.66589278 C37.9825768,9.51013086 37.9477304,9.35436893 37.8780376,9.20726045 C37.738652,8.91304348 37.4685924,8.71401435 37.172398,8.65344027 L19.4268684,0.103841283 C19.1393856,-0.0346137611 18.7996332,-0.0346137611 18.5121504,0.103841283 L0.592388812,8.73132123 C0.243924805,8.8957366 0.0174232004,9.24187421 0,9.63127902 L0,9.63993246 C0,9.6485859 0,9.65723934 0,9.67454622 L0,31.3254538 C0,31.723512 0.226501605,32.0869565 0.592388812,32.2600253 L18.5121504,40.8875053 C18.520862,40.8875053 18.520862,40.8875053 18.5295736,40.8961587 C18.5557084,40.9048122 18.5818432,40.9134656 18.607978,40.9307725 C18.6166896,40.9307725 18.6254012,40.9394259 18.6428244,40.9394259 C18.6689592,40.9480794 18.695094,40.9567328 18.7212288,40.9653862 C18.7299404,40.9653862 18.738652,40.9740397 18.7473636,40.9740397 C18.7734984,40.9826931 18.8083448,40.9826931 18.8344796,40.9913466 C18.8431912,40.9913466 18.8519028,40.9913466 18.8606144,40.9913466 C18.8954608,40.9913466 18.9390188,41 18.9738652,41 C19.0087116,41 19.0522696,41 19.087116,40.9913466 C19.0958276,40.9913466 19.1045392,40.9913466 19.1132508,40.9913466 C19.1393856,40.9913466 19.174232,40.9826931 19.2003668,40.9740397 C19.2090784,40.9740397 19.21779,40.9653862 19.2265016,40.9653862 C19.2526364,40.9567328 19.2787712,40.9480794 19.304906,40.9394259 C19.3136176,40.9394259 19.3223292,40.9307725 19.3397524,40.9307725 C19.3658872,40.922119 19.392022,40.9134656 19.4181568,40.8961587 C19.4268684,40.8961587 19.4268684,40.8961587 19.43558,40.8875053 L37.4076112,32.234065 C37.7647868,32.0609962 38,31.6975517 38,31.2994935 L38,9.6918531 C37.9825768,9.68319966 37.9825768,9.67454622 37.9825768,9.66589278 Z M18.9651536,2.18932039 L34.5066483,9.67454622 L28.783127,12.4349937 L13.2416323,4.94976783 L18.9651536,2.18932039 Z M18.9651536,17.1597721 L3.42365887,9.67454622 L10.8459422,6.10067539 L26.387437,13.5859012 L18.9651536,17.1597721 Z M2.09078404,11.3446602 L17.9197616,18.9683411 L17.9197616,38.2914732 L2.09078404,30.6677923 L2.09078404,11.3446602 Z M20.0105456,38.2914732 L20.0105456,18.9683411 L27.4415406,15.3858168 L27.4415406,20.4394259 C27.4415406,21.010553 27.911967,21.4778388 28.4869326,21.4778388 C29.0618982,21.4778388 29.5323246,21.010553 29.5323246,20.4394259 L29.5323246,14.3733643 L35.8917928,11.3100464 L35.8917928,30.6331786 L20.0105456,38.2914732 Z" id="Shape"></path>
            </g>
        </g>
    </g>
</svg>