<?xml version="1.0" encoding="UTF-8"?>
<svg width="20px" height="25px" viewBox="0 0 20 25" version="1.1" xmlns="http://www.w3.org/2000/svg" xmlns:xlink="http://www.w3.org/1999/xlink">
    <!-- Generator: Sketch 49.1 (51147) - http://www.bohemiancoding.com/sketch -->
    <title>Group 8</title>
    <desc>Created with Sketch.</desc>
    <defs></defs>
    <g id="Page-1" stroke="none" stroke-width="1" fill="none" fill-rule="evenodd">
        <g id="pdf-(1)" transform="translate(-1.000000, -29.000000)" fill-rule="nonzero">
            <g id="Group-8" transform="translate(1.000000, 29.000000)">
                <g id="Group-7">
                    <g id="Group-6-Copy">
                        <path d="M1.45077491,0 L13.5710701,0 L19.9953506,6.99282258 L19.9953506,23.3820968 C19.9953506,24.2433065 19.35631,24.9408871 18.5688561,24.9408871 L1.45077491,24.9408871 C0.663321033,24.9408871 0.0242804428,24.2433065 0.0242804428,23.3820968 L0.0242804428,1.55879032 C0.0242804428,0.697580645 0.663394834,0 1.45077491,0 Z" id="Shape" fill="#E2574C"></path>
                        <path d="M19.9747601,7.01459677 L15.0026568,7.01459677 C14.215203,7.01459677 13.5761624,6.31629032 13.5761624,5.45580645 L13.5761624,0.0155645161 L19.9747601,7.01459677 Z" id="Shape" fill="#B53629"></path>
                    </g>
                </g>
                <g id="Group" transform="translate(4.000000, 10.000000)" fill="#FFFFFF">
                    <path d="M1.82868293,0.0611428571 C2.0862439,0.0611428571 2.30165854,0.103428571 2.47843902,0.188 C2.65521951,0.272571429 2.79570732,0.383428571 2.90341463,0.520571429 C3.01112195,0.657714286 3.08839024,0.814285714 3.13521951,0.990285714 C3.18087805,1.16514286 3.20546341,1.34571429 3.20546341,1.52857143 C3.20546341,1.78 3.16682927,1.99942857 3.08956098,2.18685714 C3.01229268,2.37428571 2.90458537,2.52742857 2.76643902,2.64514286 C2.62829268,2.764 2.46087805,2.85428571 2.26419512,2.91257143 C2.0675122,2.97085714 1.8497561,3.00285714 1.61092683,3.00285714 L1.07004878,3.00285714 L1.07004878,4.95714286 L0.0585365854,4.95714286 L0.0585365854,0.0611428571 L1.82868293,0.0611428571 Z M1.51960976,2.27828571 C1.72097561,2.27828571 1.88487805,2.21771429 2.00780488,2.09885714 C2.13190244,1.98 2.19395122,1.79485714 2.19395122,1.54342857 C2.19395122,1.29657143 2.14009756,1.10914286 2.03239024,0.981142857 C1.92468293,0.854285714 1.74439024,0.789142857 1.4915122,0.789142857 L1.07004878,0.789142857 L1.07004878,2.27828571 L1.51960976,2.27828571 Z" id="Shape"></path>
                    <path d="M6.11356098,0.06 C6.46595122,0.06 6.74809756,0.117142857 6.96468293,0.229142857 C7.18009756,0.341142857 7.3475122,0.5 7.46692683,0.709142857 C7.5875122,0.917142857 7.66712195,1.16628571 7.70926829,1.46 C7.75141463,1.75257143 7.7724878,2.07942857 7.7724878,2.43942857 C7.7724878,2.86914286 7.74673171,3.24285714 7.69287805,3.56057143 C7.63902439,3.87714286 7.54653659,4.14 7.41541463,4.34571429 C7.28429268,4.55257143 7.10868293,4.70457143 6.88858537,4.80514286 C6.6684878,4.90571429 6.38985366,4.956 6.05268293,4.956 L4.45580488,4.956 L4.45580488,0.06 L6.11356098,0.06 Z M5.91687805,4.23142857 C6.09482927,4.23142857 6.23765854,4.20171429 6.34536585,4.14228571 C6.45307317,4.08285714 6.53853659,3.98457143 6.6017561,3.84742857 C6.66614634,3.71028571 6.70829268,3.52971429 6.72819512,3.30457143 C6.74926829,3.08171429 6.75980488,2.80285714 6.75980488,2.46914286 C6.75980488,2.19028571 6.74926829,1.94571429 6.73170732,1.73428571 C6.71297561,1.524 6.67434146,1.34914286 6.61580488,1.20971429 C6.55609756,1.07028571 6.47063415,0.965142857 6.35473171,0.895428571 C6.24,0.824571429 6.08663415,0.788 5.89463415,0.788 L5.46731707,0.788 L5.46731707,4.23142857 L5.91687805,4.23142857 Z" id="Shape"></path>
                    <polygon id="Shape" points="11.9438049 0.0611428571 11.9438049 0.870285714 10.1525854 0.870285714 10.1525854 2.02228571 11.838439 2.02228571 11.838439 2.83142857 10.1525854 2.83142857 10.1525854 4.95714286 9.14107317 4.95714286 9.14107317 0.0611428571"></polygon>
                </g>
            </g>
        </g>
    </g>
</svg>