<?xml version="1.0" encoding="UTF-8"?>
<svg width="20px" height="25px" viewBox="0 0 20 25" version="1.1" xmlns="http://www.w3.org/2000/svg" xmlns:xlink="http://www.w3.org/1999/xlink">
    <!-- Generator: Sketch 48.2 (47327) - http://www.bohemiancoding.com/sketch -->
    <title>Pkg Details</title>
    <desc>Created with Sketch.</desc>
    <defs></defs>
    <g id="Order-left-nav" stroke="none" stroke-width="1" fill="none" fill-rule="evenodd" transform="translate(-22.000000, -167.000000)">
        <g id="Pkg-Details" transform="translate(22.000000, 167.000000)">
            <g id="Invoice-Small-Copy-2" transform="translate(0.000000, 0.200000)" fill="#8B572A" fill-rule="nonzero">
                <path d="M2.66666667,0 L17.3333333,0 C18.8060927,-2.705415e-16 20,1.19390733 20,2.66666667 L20,21.3333333 C20,22.8060927 18.8060927,24 17.3333333,24 L2.66666667,24 C1.19390733,24 1.81916976e-12,22.8060927 1.8189894e-12,21.3333333 L1.8189894e-12,2.66666667 C1.81880904e-12,1.19390733 1.19390733,2.705415e-16 2.66666667,0 Z" id="Rectangle"></path>
            </g>
            <g id="package" transform="translate(3.166667, 5.000000)">
                <g id="Package-icon"></g>
                <path d="M13.8269907,3.55773437 C13.8269907,3.50040293 13.8143054,3.44307149 13.7889347,3.38892513 C13.7381935,3.28063241 13.6398823,3.20737557 13.5320572,3.18508001 L7.07206175,0.0382209601 C6.96740792,-0.01274032 6.84372612,-0.01274032 6.73907229,0.0382209601 L0.215650313,3.21374573 C0.0887971878,3.27426225 0.00634265627,3.40166545 0,3.54499405 L0,3.54817913 C0,3.55136421 0,3.55454929 0,3.56091945 L0,11.5299896 C0,11.6765033 0.0824545316,11.8102767 0.215650313,11.8739783 L6.73907229,15.0495031 C6.74224362,15.0495031 6.74224362,15.0495031 6.74541495,15.0526881 C6.75492893,15.0558732 6.76444292,15.0590583 6.7739569,15.0654285 C6.77712823,15.0654285 6.78029956,15.0686135 6.78664221,15.0686135 C6.7961562,15.0717986 6.80567018,15.0749837 6.81518417,15.0781688 C6.81835549,15.0781688 6.82152682,15.0813539 6.82469815,15.0813539 C6.83421214,15.0845389 6.84689745,15.0845389 6.85641143,15.087724 C6.85958276,15.087724 6.86275409,15.087724 6.86592542,15.087724 C6.87861073,15.087724 6.89446737,15.0909091 6.90715268,15.0909091 C6.91983799,15.0909091 6.93569464,15.0909091 6.94837995,15.087724 C6.95155128,15.087724 6.9547226,15.087724 6.95789393,15.087724 C6.96740792,15.087724 6.98009323,15.0845389 6.98960721,15.0813539 C6.99277854,15.0813539 6.99594987,15.0781688 6.9991212,15.0781688 C7.00863518,15.0749837 7.01814917,15.0717986 7.02766315,15.0686135 C7.03083448,15.0686135 7.03400581,15.0654285 7.04034846,15.0654285 C7.04986245,15.0622434 7.05937643,15.0590583 7.06889042,15.0526881 C7.07206175,15.0526881 7.07206175,15.0526881 7.07523307,15.0495031 L13.617683,11.864423 C13.7477075,11.8007214 13.8333333,11.6669481 13.8333333,11.5204344 L13.8333333,3.56728961 C13.8269907,3.56410453 13.8269907,3.56091945 13.8269907,3.55773437 Z M6.90398135,0.805825243 L12.5616308,3.56091945 L10.4780682,4.57695998 L4.82041877,1.82186577 L6.90398135,0.805825243 Z M6.90398135,6.31601366 L1.24633196,3.56091945 L3.94830353,2.24548141 L9.60595293,5.00057562 L6.90398135,6.31601366 Z M0.761118753,4.17563989 L6.52342198,6.98169538 L6.52342198,14.093979 L0.761118753,11.2879236 L0.761118753,4.17563989 Z M7.28454073,14.093979 L7.28454073,6.98169538 L9.98968363,5.66307226 L9.98968363,7.52315899 C9.98968363,7.73337427 10.1609354,7.90536859 10.370243,7.90536859 C10.5795507,7.90536859 10.7508024,7.73337427 10.7508024,7.52315899 L10.7508024,5.2904179 L13.0658719,4.16289957 L13.0658719,11.2751832 L7.28454073,14.093979 Z" id="Shape" stroke="#FFFFFF" stroke-width="0.5" fill="#FFFFFF" fill-rule="nonzero"></path>
            </g>
        </g>
    </g>
</svg>