<?xml version="1.0" encoding="UTF-8"?>
<svg width="19px" height="19px" viewBox="0 0 19 19" version="1.1" xmlns="http://www.w3.org/2000/svg" xmlns:xlink="http://www.w3.org/1999/xlink">
    <!-- Generator: Sketch 48.2 (47327) - http://www.bohemiancoding.com/sketch -->
    <title>printer-tool</title>
    <desc>Created with Sketch.</desc>
    <defs></defs>
    <g id="Order-Detail-Nav" stroke="none" stroke-width="1" fill="none" fill-rule="evenodd" transform="translate(-1067.000000, -13.000000)">
        <g id="printer-tool" transform="translate(1067.000000, 13.000000)" fill="#8A8A8A" fill-rule="nonzero">
            <path d="M5.20004748,1.3333773 L13.7999525,1.3333773 L13.7999525,4 L15,4 L15,1.3333773 C15,0.597726923 14.463348,0 13.7999525,0 L5.20004748,0 C4.53799735,0 4,0.597726923 4,1.3333773 L4,4 L5.20004748,4 L5.20004748,1.3333773 Z" id="Shape"></path>
            <path d="M17.8126444,5 L1.1875514,5 C0.532395185,5 0,5.52286292 0,6.16660255 L0,11.9999615 C0,12.6448938 0.532356027,13.1666795 1.1875514,13.1666795 L3.56253671,13.1666795 L3.56253671,17.8333205 C3.56253671,18.4782527 4.09489274,19 4.75008811,19 L14.2500294,19 C14.906517,19 15.4375808,18.4782527 15.4375808,17.8333205 L15.4375808,13.1666795 L17.8126444,13.1666795 C18.468897,13.1666795 19,12.6448938 19,11.9999615 L19,6.16660255 C19,5.52286292 18.4688579,5 17.8126444,5 Z M14.2499902,17.8333205 L4.75004895,17.8333205 L4.75004895,9.66664102 L14.2499902,9.66664102 L14.2499902,17.8333205 Z M16.6250538,8.50003847 C15.9686054,8.50003847 15.4375416,7.97821427 15.4375416,7.33332051 C15.4375416,6.68965783 15.9686054,6.16660255 16.6250538,6.16660255 C17.2815414,6.16660255 17.8126052,6.68961935 17.8126052,7.33332051 C17.8126444,7.9781758 17.2815414,8.50003847 16.6250538,8.50003847 Z" id="Shape"></path>
            <rect id="Rectangle-path" x="6" y="11" width="5" height="1"></rect>
            <rect id="Rectangle-path" x="6" y="13" width="7" height="1"></rect>
            <rect id="Rectangle-path" x="6" y="15" width="7" height="1"></rect>
        </g>
    </g>
</svg>