<?xml version="1.0" encoding="UTF-8"?>
<svg width="22px" height="26px" viewBox="0 0 22 26" version="1.1" xmlns="http://www.w3.org/2000/svg" xmlns:xlink="http://www.w3.org/1999/xlink">
    <!-- Generator: Sketch 48.2 (47327) - http://www.bohemiancoding.com/sketch -->
    <title>Reports</title>
    <desc>Created with Sketch.</desc>
    <defs></defs>
    <g id="Global-Nav" stroke="none" stroke-width="1" fill="none" fill-rule="evenodd" transform="translate(-21.000000, -277.000000)" opacity="0.600000024">
        <g id="Reports" transform="translate(21.000000, 277.000000)" fill="#FFFFFF" fill-rule="nonzero">
            <path d="M3.66666667,1.82758621 C2.65414463,1.82758621 1.83333333,2.64273673 1.83333333,3.64827586 L1.83333333,22.1862069 C1.83333333,23.191746 2.65414463,24.0068966 3.66666667,24.0068966 L18.3333333,24.0068966 C19.3458554,24.0068966 20.1666667,23.191746 20.1666667,22.1862069 L20.1666667,3.64827586 C20.1666667,2.64273673 19.3458554,1.82758621 18.3333333,1.82758621 L3.66666667,1.82758621 Z M3.66666667,0.172413793 L18.3333333,0.172413793 C20.26633,0.172413793 21.8333333,1.72861025 21.8333333,3.64827586 L21.8333333,22.1862069 C21.8333333,24.1058725 20.26633,25.662069 18.3333333,25.662069 L3.66666667,25.662069 C1.73367004,25.662069 0.166666667,24.1058725 0.166666667,22.1862069 L0.166666667,3.64827586 C0.166666667,1.72861025 1.73367004,0.172413793 3.66666667,0.172413793 Z" id="Rectangle"></path>
            <polygon id="Shape" points="13.5805274 7.94092222 17.9827127 6.65023354 16.6436861 10.8788265 15.5685677 9.85527132 11.4052334 13.8678642 7.98245466 10.5575194 5.00119261 13.4308392 4.03419193 12.4988506 7.98295977 8.69305536 11.4057385 12.0034002 14.6006797 8.92413793"></polygon>
            <g id="Group" transform="translate(4.333333, 15.565517)">
                <path d="M2.07329843,2.82532352 L2.07329843,1.42605192 L4.7399651,1.42605192 L4.7399651,1.94157303 L6.12216405,1.94157303 L6.12216405,0.522216195 L8.78883072,0.522216195 L8.78883072,2.82532352 L10.1710297,2.82532352 L10.1710297,1.42605192 L12.1954625,1.42605192 L12.1954625,0.00669507943 L13.2774869,0.00669507943 L13.2774869,5.91845021 L12.1954625,5.91845021 L12.1954625,5.91175513 L10.8132635,5.91175513 L10.8132635,5.91845021 L8.14659686,5.91845021 L6.12216405,5.91845021 L6.12216405,5.91175513 L4.09773124,5.91175513 L2.71553229,5.91175513 L2.71553229,5.91845021 L0.0488656195,5.91845021 L0.0488656195,2.82532352 L2.07329843,2.82532352 Z" id="Combined-Shape"></path>
            </g>
        </g>
    </g>
</svg>