<?xml version="1.0" encoding="UTF-8"?>
<svg width="20px" height="20px" viewBox="0 0 20 20" version="1.1" xmlns="http://www.w3.org/2000/svg" xmlns:xlink="http://www.w3.org/1999/xlink">
    <!-- Generator: Sketch 50.2 (55047) - http://www.bohemiancoding.com/sketch -->
    <title>roles</title>
    <desc>Created with Sketch.</desc>
    <defs>
        <path d="M6,6 C7.6575,6 9,4.6575 9,3 C9,1.3425 7.6575,0 6,0 C4.3425,0 3,1.3425 3,3 C3,4.6575 4.3425,6 6,6 Z M6,7.5 C3.9975,7.5 0,8.505 0,10.5 L0,12 L12,12 L12,10.5 C12,8.505 8.0025,7.5 6,7.5 Z" id="path-1"></path>
    </defs>
    <g id="Client-Dashbaord" stroke="none" stroke-width="1" fill="none" fill-rule="evenodd">
        <g id="Artboard" transform="translate(-96.000000, -80.000000)">
            <g id="roles" transform="translate(96.000000, 80.000000)">
                <rect id="Rectangle-11" fill="#F85359" x="0" y="0" width="20" height="20" rx="1"></rect>
                <g id="ic_person_24px" transform="translate(4.000000, 4.000000)">
                    <mask id="mask-2" fill="white">
                        <use xlink:href="#path-1"></use>
                    </mask>
                    <g id="Shape" fill-rule="nonzero"></g>
                    <g id="c/#000000/0.54" mask="url(#mask-2)" fill="#FFFFFF">
                        <g transform="translate(-3.000000, -3.000000)" id="Rectangle">
                            <rect x="0" y="0" width="16.875" height="16.875"></rect>
                        </g>
                    </g>
                </g>
            </g>
        </g>
    </g>
</svg>