<?xml version="1.0" encoding="UTF-8"?>
<svg width="56px" height="45px" viewBox="0 0 56 45" version="1.1" xmlns="http://www.w3.org/2000/svg" xmlns:xlink="http://www.w3.org/1999/xlink">
    <!-- Generator: Sketch 50.2 (55047) - http://www.bohemiancoding.com/sketch -->
    <title>rupess@2x</title>
    <desc>Created with Sketch.</desc>
    <defs></defs>
    <g id="Client-Dashbaord" stroke="none" stroke-width="1" fill="none" fill-rule="evenodd">
        <g id="orders-1" transform="translate(-840.000000, -234.000000)" stroke="#C0C7CF">
            <g id="Group-Copy-2" transform="translate(650.000000, 159.000000)">
                <g id="rupess" transform="translate(190.000000, 75.000000)">
                    <path d="M1.5,3.8459071 L1.5,53.5 L54.5,53.5 L54.5,3.51509627 L43.88298,13.6897404 L36.0585477,4.39822712 L28,14.975071 L19.9642496,4.42814862 L11.572565,14.7943473 L1.5,3.8459071 Z" id="Rectangle-3" stroke-width="3"></path>
                    <g id="Group" transform="translate(19.000000, 23.000000)" fill="#C0C7CF" fill-rule="nonzero" stroke-width="0.2">
                        <path d="M14.2214212,25.1356375 C13.8475798,24.7837199 13.4706488,24.4318023 13.0968074,24.0798847 C12.1946447,23.2359053 11.2955716,22.3888115 10.3934089,21.5448321 C9.30587024,20.5264511 8.22142122,19.50807 7.1338826,18.489689 C6.1915551,17.6052235 5.2492276,16.720758 4.3069001,15.8394068 C3.84963955,15.4096313 3.39855819,14.9705129 2.93202884,14.5500803 C2.92584964,14.5438517 2.91967044,14.5376231 2.91349125,14.5313944 C3.03398558,14.8241401 3.15447992,15.12 3.27497425,15.4127456 C3.27497425,15.1168857 3.27497425,14.8179114 3.27497425,14.5220515 C2.86405767,14.9362554 2.45005149,15.3535736 2.03913491,15.7677775 C2.63851699,15.7677775 3.24098867,15.7677775 3.84037075,15.7677775 C4.45829042,15.7677775 5.08238929,15.7895778 5.70030896,15.7615489 C8.4407827,15.633862 11.0205973,14.0393326 12.2966014,11.5727951 C12.9361483,10.3395263 13.2698249,8.93808445 13.1987642,7.54598558 C13.1277034,6.16945829 12.7167868,4.80538826 11.9660144,3.64997734 C11.2276004,2.51636663 10.2111226,1.54470031 9.0092688,0.921837281 C7.8815654,0.33323172 6.64263646,0.021800206 5.37281153,0.0186858908 C4.04428424,0.0186858908 2.71266735,0.0186858908 1.38414006,0.0186858908 C1.34088568,0.0186858908 1.30072091,0.0186858908 1.25746653,0.0186858908 C0.611740474,0.0186858908 -0.00926879506,0.591719876 0.0216271885,1.26441195 C0.052523172,1.94021833 0.565396498,2.510138 1.25746653,2.510138 C2.55818744,2.510138 3.86199794,2.510138 5.16271885,2.510138 C5.52729145,2.510138 5.89186406,2.51948095 6.25334706,2.56619567 C6.14521112,2.5506241 6.03398558,2.53505252 5.92584964,2.52259526 C6.50669413,2.60045314 7.07209063,2.7561689 7.61277034,2.9835139 C7.51390319,2.94302781 7.41503605,2.89942739 7.3161689,2.8589413 C7.84449022,3.0862863 8.33882595,3.37903193 8.79299691,3.73094954 C8.70957775,3.66554892 8.6261586,3.6001483 8.54273944,3.53474768 C8.98146241,3.88043666 9.3738414,4.27595469 9.71678682,4.71818744 C9.65190525,4.63410093 9.58702369,4.55001442 9.52214212,4.46592791 C9.87126674,4.92373223 10.161689,5.42202266 10.3872297,5.95457055 C10.3470649,5.85491246 10.3038105,5.75525438 10.2636457,5.65559629 C10.4891864,6.20060144 10.6436663,6.77052111 10.7209063,7.35601236 C10.7054583,7.24701133 10.6900103,7.13489598 10.6776519,7.02589495 C10.7518023,7.59892894 10.7518023,8.18130587 10.6776519,8.75433986 C10.6930999,8.64533883 10.7085479,8.53322348 10.7209063,8.42422245 C10.6436663,9.0097137 10.4891864,9.57963337 10.2636457,10.1246385 C10.3038105,10.0249804 10.3470649,9.92532235 10.3872297,9.82566426 C10.161689,10.3582122 9.87126674,10.8565026 9.52214212,11.3143069 C9.58702369,11.2302204 9.65190525,11.1461339 9.71678682,11.0620474 C9.3738414,11.5042801 8.98146241,11.8997981 8.54273944,12.2454871 C8.6261586,12.1800865 8.70957775,12.1146859 8.79299691,12.0492853 C8.33882595,12.4012029 7.84449022,12.6939485 7.3161689,12.9212935 C7.41503605,12.8808074 7.51390319,12.837207 7.61277034,12.7967209 C7.07209063,13.0240659 6.50669413,13.1797817 5.92584964,13.2576395 C6.03398558,13.242068 6.14521112,13.2264964 6.25334706,13.2140391 C5.70339856,13.2856684 5.15036045,13.2700968 4.59732235,13.2700968 C3.91452111,13.2700968 3.23480947,13.2700968 2.55200824,13.2700968 C2.38208033,13.2700968 2.20906282,13.2700968 2.03913491,13.2700968 C1.37178167,13.2700968 0.803295572,13.8400165 0.803295572,14.5158229 C0.803295572,14.8054542 0.797116375,15.0950855 0.803295572,15.3847168 C0.809474768,15.7553203 0.960865088,16.0947806 1.22657055,16.3439258 C1.42430484,16.5276704 1.62203913,16.7145294 1.81977343,16.8982739 C2.68177137,17.7048816 3.54376931,18.5146035 4.40576725,19.3212111 C5.54891864,20.3925355 6.69207003,21.4638599 7.83522142,22.5382987 C8.86405767,23.5037364 9.89598352,24.469174 10.9248198,25.4346117 C11.4346035,25.9142163 11.9412976,26.3969351 12.454171,26.870311 C12.4603502,26.8765396 12.4696189,26.8827683 12.4757981,26.8889969 C12.7136972,27.1101133 13.0195675,27.2533718 13.3501545,27.2533718 C13.6529351,27.2533718 14.0144181,27.1163419 14.2245108,26.8889969 C14.4407827,26.652309 14.6014418,26.3408774 14.5859938,26.0076457 C14.5674562,25.6930999 14.4624099,25.3629825 14.2214212,25.1356375 Z" id="Shape"></path>
                        <path d="M1.25746653,2.510138 C1.80123584,2.510138 2.34500515,2.510138 2.88877446,2.510138 C4.19567456,2.510138 5.50257467,2.510138 6.80947477,2.510138 C8.38516993,2.510138 9.95777549,2.510138 11.5334706,2.510138 C12.8990731,2.510138 14.2646756,2.510138 15.6302781,2.510138 C16.2945417,2.510138 16.9588054,2.51948095 17.6199794,2.510138 C17.6292482,2.510138 17.638517,2.510138 17.6477858,2.510138 C18.2935118,2.510138 18.9145211,1.93710402 18.8836251,1.26441195 C18.8527291,0.588605561 18.3398558,0.0186858908 17.6477858,0.0186858908 C17.1040165,0.0186858908 16.5602472,0.0186858908 16.0164779,0.0186858908 C14.7095778,0.0186858908 13.4026777,0.0186858908 12.0957775,0.0186858908 C10.5200824,0.0186858908 8.94747683,0.0186858908 7.37178167,0.0186858908 C6.0061792,0.0186858908 4.64057673,0.0186858908 3.27497425,0.0186858908 C2.61071061,0.0186858908 1.94644696,0.00934294542 1.28527291,0.0186858908 C1.27600412,0.0186858908 1.26673532,0.0186858908 1.25746653,0.0186858908 C0.611740474,0.0186858908 -0.00926879506,0.591719876 0.0216271885,1.26441195 C0.052523172,1.94021833 0.565396498,2.510138 1.25746653,2.510138 Z" id="Shape"></path>
                        <path d="M1.25746653,9.14051493 C1.80123584,9.14051493 2.34500515,9.14051493 2.88877446,9.14051493 C4.19567456,9.14051493 5.50257467,9.14051493 6.80947477,9.14051493 C8.38516993,9.14051493 9.95777549,9.14051493 11.5334706,9.14051493 C12.8990731,9.14051493 14.2646756,9.14051493 15.6302781,9.14051493 C16.2945417,9.14051493 16.9588054,9.14985788 17.6199794,9.14051493 C17.6292482,9.14051493 17.638517,9.14051493 17.6477858,9.14051493 C18.2935118,9.14051493 18.9145211,8.56748095 18.8836251,7.89478888 C18.8527291,7.21898249 18.3398558,6.64906282 17.6477858,6.64906282 C17.1040165,6.64906282 16.5602472,6.64906282 16.0164779,6.64906282 C14.7095778,6.64906282 13.4026777,6.64906282 12.0957775,6.64906282 C10.5200824,6.64906282 8.94747683,6.64906282 7.37178167,6.64906282 C6.0061792,6.64906282 4.64057673,6.64906282 3.27497425,6.64906282 C2.61071061,6.64906282 1.94644696,6.63971988 1.28527291,6.64906282 C1.27600412,6.64906282 1.26673532,6.64906282 1.25746653,6.64906282 C0.611740474,6.64906282 -0.00926879506,7.22209681 0.0216271885,7.89478888 C0.052523172,8.56748095 0.565396498,9.14051493 1.25746653,9.14051493 Z" id="Shape"></path>
                    </g>
                </g>
            </g>
        </g>
    </g>
</svg>