<?xml version="1.0" encoding="UTF-8"?>
<svg width="28px" height="36px" viewBox="0 0 28 36" version="1.1" xmlns="http://www.w3.org/2000/svg" xmlns:xlink="http://www.w3.org/1999/xlink">
    <!-- Generator: Sketch 47.1 (45422) - http://www.bohemiancoding.com/sketch -->
    <title>pinterest (2)</title>
    <desc>Created with Sketch.</desc>
    <defs></defs>
    <g id="Page-1" stroke="none" stroke-width="1" fill="none" fill-rule="evenodd">
        <g id="Dashboard-2" transform="translate(-757.000000, -181.000000)" fill-rule="nonzero" fill="#FFFFFF">
            <g id="pinterest-(2)" transform="translate(757.000000, 181.000000)">
                <path d="M24.3685549,3.68911354 C21.91635,1.31021293 18.522729,0 14.8129369,0 C9.1460706,0 5.66067368,2.34740037 3.73470174,4.31651667 C1.36105264,6.74323013 0,9.96546518 0,13.1571141 C0,17.1644643 1.65871551,20.2402374 4.43641514,21.3845115 C4.62288931,21.4617152 4.81054633,21.5005983 4.99451561,21.5005983 C5.58051762,21.5005983 6.04482437,21.1131033 6.20569313,20.4916064 C6.29948685,20.1350491 6.51671533,19.2553628 6.61120485,18.8734928 C6.81340407,18.1193855 6.65003044,17.7566406 6.20903296,17.2314727 C5.40566331,16.2708561 5.03153212,15.1349492 5.03153212,13.6566178 C5.03153212,9.265499 8.26713716,4.59868284 14.264021,4.59868284 C19.0223128,4.59868284 21.9780674,7.33160953 21.9780674,11.7308143 C21.9780674,14.5069132 21.3863599,17.0778387 20.311559,18.9703138 C19.5646882,20.285308 18.2513674,21.8527963 16.2352199,21.8527963 C15.3633836,21.8527963 14.5801921,21.4908951 14.0860356,20.859906 C13.6192239,20.2634407 13.4653132,19.4929505 13.6531094,18.6899054 C13.8651889,17.7825862 14.1544326,16.8361728 14.4343526,15.9212597 C14.9448604,14.2502004 15.4274667,12.6718839 15.4274667,11.4126479 C15.4274667,9.25881926 14.1171378,7.81156625 12.1671608,7.81156625 C9.68900265,7.81156625 7.74751438,10.3550697 7.74751438,13.6021252 C7.74751438,15.1945746 8.16631587,16.3856773 8.35592113,16.8429932 C8.04371606,18.1796438 6.18829815,26.126422 5.83636296,27.6249332 C5.63284172,28.4996976 4.40698284,35.4089368 6.43600263,35.9598393 C8.71571885,36.5788049 10.7535057,29.8497077 10.9609234,29.0893426 C11.1290285,28.4709395 11.7171875,26.1325392 12.0776114,24.6951301 C13.1781569,25.766349 14.9501485,26.4905732 16.6743387,26.4905732 C19.9247642,26.4905732 22.8479555,25.0124527 24.905503,22.3288155 C26.9009853,19.7258273 28,16.0978157 28,12.1135984 C27.9998608,8.99887201 26.6761726,5.92816154 24.3685549,3.68911354 Z" id="Shape"></path>
            </g>
        </g>
    </g>
</svg>