<?xml version="1.0" encoding="UTF-8"?>
<svg width="31px" height="26px" viewBox="0 0 31 26" version="1.1" xmlns="http://www.w3.org/2000/svg" xmlns:xlink="http://www.w3.org/1999/xlink">
    <!-- Generator: Sketch 47.1 (45422) - http://www.bohemiancoding.com/sketch -->
    <title>twitter (2)</title>
    <desc>Created with Sketch.</desc>
    <defs></defs>
    <g id="Page-1" stroke="none" stroke-width="1" fill="none" fill-rule="evenodd">
        <g id="Dashboard-2" transform="translate(-421.000000, -186.000000)" fill-rule="nonzero" fill="#FFFFFF">
            <g id="twitter-(2)" transform="translate(421.000000, 186.000000)">
                <path d="M30.5069656,3.02460628 C29.8181941,3.33256149 29.1031959,3.57551154 28.3695292,3.75139885 C29.1779457,2.97682407 29.7857698,2.00799594 30.1286817,0.926609081 L30.1286817,0.926609081 C30.2265593,0.617891803 29.8940021,0.350936328 29.617526,0.516230769 L29.617526,0.516230769 C28.5968775,1.12665422 27.4974733,1.58458612 26.3497727,1.8774522 C26.2831857,1.89444651 26.2144824,1.90305798 26.1455523,1.90305798 C25.9364947,1.90305798 25.7332568,1.8247927 25.5734026,1.6827416 C24.3523127,0.597620562 22.7818109,0 21.1512976,0 C20.445747,0 19.7333942,0.110882162 19.0339658,0.32959818 C16.8669015,1.00731301 15.1948186,2.80970065 14.6702094,5.03344051 C14.473396,5.86753348 14.4201112,6.70238852 14.5117157,7.51476231 C14.5222214,7.6081167 14.4784599,7.67327426 14.4514774,7.70383354 C14.404088,7.75740753 14.3368963,7.78811922 14.2671349,7.78811922 C14.25935,7.78811922 14.2513384,7.78773819 14.2434024,7.78697611 C9.49977493,7.34260917 5.22218117,5.0383178 2.19855515,1.29865493 L2.19855515,1.29865493 C2.0443695,1.10790713 1.74869583,1.13130289 1.6258008,1.34384608 L1.6258008,1.34384608 C1.03369765,2.36807719 0.720791474,3.53954152 0.720791474,4.73158192 C0.720791474,6.55843223 1.44871404,8.28003975 2.71311198,9.53510389 C2.18139822,9.4079895 1.66676581,9.20779194 1.1887147,8.94007439 L1.1887147,8.94007439 C0.95743622,8.81052135 0.672872992,8.97703511 0.669623,9.24376196 L0.669623,9.24376196 C0.636518433,11.9576696 2.21238651,14.3725383 4.5730898,15.4599455 C4.52554923,15.4610887 4.47800865,15.4616221 4.43039249,15.4616221 C4.05618996,15.4616221 3.67730139,15.4251948 3.30438373,15.353331 L3.30438373,15.353331 C3.04393091,15.3031864 2.82512332,15.5523092 2.90599521,15.8069191 L2.90599521,15.8069191 C3.67223745,18.2189681 5.73197639,19.9968931 8.19683057,20.4005651 C6.15114974,21.7851823 3.7689058,22.5155566 1.28946444,22.5155566 L0.516495483,22.5150994 C0.278339113,22.5150994 0.0769152072,22.6716299 0.0162235013,22.9042157 C-0.0435612302,23.133296 0.0665605824,23.3749505 0.269647274,23.4940631 C3.06358202,25.1335188 6.25046344,26 9.48715287,26 C12.3203143,26 14.9704936,25.4330911 17.3641502,24.3151246 C19.5584993,23.2902076 21.4976106,21.8251151 23.1275949,19.960542 C24.6460212,18.2236168 25.8334019,16.2185167 26.6566324,14.0010259 C27.441392,11.8872537 27.8561817,9.63181143 27.8561817,7.47848745 L27.8561817,7.37591193 C27.8561061,7.03015772 28.0111987,6.70482717 28.2817794,6.48336768 C29.3085501,5.64279706 30.2026757,4.65331665 30.9392145,3.54243741 L30.9392145,3.54243741 C31.1336849,3.24911409 30.8269764,2.88148828 30.5069656,3.02460628 L30.5069656,3.02460628 Z" id="Shape"></path>
            </g>
        </g>
    </g>
</svg>