<?xml version="1.0" encoding="UTF-8"?>
<svg width="20px" height="20px" viewBox="0 0 20 20" version="1.1" xmlns="http://www.w3.org/2000/svg" xmlns:xlink="http://www.w3.org/1999/xlink">
    <!-- Generator: Sketch 50.2 (55047) - http://www.bohemiancoding.com/sketch -->
    <title>shipments</title>
    <desc>Created with Sketch.</desc>
    <defs>
        <path d="M13.3796296,2.93333333 L11.3726852,2.93333333 L11.3726852,0.366666667 L2.00694444,0.366666667 C1.27106481,0.366666667 0.668981481,0.944166667 0.668981481,1.65 L0.668981481,8.70833333 L2.00694444,8.70833333 C2.00694444,9.7735 2.90337963,10.6333333 4.01388889,10.6333333 C5.12439815,10.6333333 6.02083333,9.7735 6.02083333,8.70833333 L10.0347222,8.70833333 C10.0347222,9.7735 10.9311574,10.6333333 12.0416667,10.6333333 C13.1521759,10.6333333 14.0486111,9.7735 14.0486111,8.70833333 L15.3865741,8.70833333 L15.3865741,5.5 L13.3796296,2.93333333 Z M4.01388889,9.67083333 C3.45863426,9.67083333 3.01041667,9.24091667 3.01041667,8.70833333 C3.01041667,8.17575 3.45863426,7.74583333 4.01388889,7.74583333 C4.56914352,7.74583333 5.01736111,8.17575 5.01736111,8.70833333 C5.01736111,9.24091667 4.56914352,9.67083333 4.01388889,9.67083333 Z M13.0451389,3.89583333 L14.3563426,5.5 L11.3726852,5.5 L11.3726852,3.89583333 L13.0451389,3.89583333 Z M12.0416667,9.67083333 C11.486412,9.67083333 11.0381944,9.24091667 11.0381944,8.70833333 C11.0381944,8.17575 11.486412,7.74583333 12.0416667,7.74583333 C12.5969213,7.74583333 13.0451389,8.17575 13.0451389,8.70833333 C13.0451389,9.24091667 12.5969213,9.67083333 12.0416667,9.67083333 Z" id="path-1"></path>
    </defs>
    <g id="Client-Dashbaord" stroke="none" stroke-width="1" fill="none" fill-rule="evenodd">
        <g id="Artboard" transform="translate(-96.000000, -271.000000)">
            <g id="shipments" transform="translate(96.000000, 271.000000)">
                <rect id="Rectangle-11" fill="#F7981C" x="0" y="0" width="20" height="20" rx="1"></rect>
                <g id="ic/local_shipping" transform="translate(1.500000, 4.500000)">
                    <g id="ic_local_shipping_24px" transform="translate(0.472222, 0.000000)">
                        <mask id="mask-2" fill="white">
                            <use xlink:href="#path-1"></use>
                        </mask>
                        <use id="Shape" fill="#FFFFFF" fill-rule="nonzero" xlink:href="#path-1"></use>
                    </g>
                </g>
            </g>
        </g>
    </g>
</svg>