<?xml version="1.0" encoding="UTF-8"?>
<svg width="18px" height="22px" viewBox="0 0 18 22" version="1.1" xmlns="http://www.w3.org/2000/svg" xmlns:xlink="http://www.w3.org/1999/xlink">
    <!-- Generator: Sketch 48.2 (47327) - http://www.bohemiancoding.com/sketch -->
    <title>file</title>
    <desc>Created with Sketch.</desc>
    <defs></defs>
    <g id="icons" stroke="none" stroke-width="1" fill="none" fill-rule="evenodd" transform="translate(-152.000000, -22.000000)">
        <g id="file" transform="translate(152.000000, 22.000000)" fill="#FFFFFF" fill-rule="nonzero">
            <path d="M8.52052192,21.4515823 L15.6845303,21.4515823 C16.4221503,21.4515823 17.0208351,20.8529228 17.0208351,20.115328 L17.0208351,2.7382881 L17.0208351,1.3363048 C17.0208351,0.59868476 16.4221503,0 15.6845303,0 L8.52052192,0 L6.13841336,0 L6.13841336,0.442066806 C6.14344029,0.487536534 6.14599165,0.535532359 6.14599165,0.583528184 L6.14599165,3.49611691 L6.14599165,4.24384134 C6.14599165,5.28206681 5.30227557,6.12578288 4.2640501,6.12578288 L3.51632568,6.12578288 L0.603736952,6.12578288 C0.565845511,6.12578288 0.525427975,6.12325678 0.487536534,6.12073069 L0.0227348643,6.12073069 L0.0227348643,20.115328 C0.0227348643,20.8529228 0.621419624,21.4515823 1.35903967,21.4515823 L2.82417537,21.4515823 L8.52052192,21.4515823 Z M8.7908142,16.9096868 L4.12006263,16.9096868 C3.77146138,16.9096868 3.48853862,16.6267388 3.48853862,16.2781628 C3.48853862,15.9295363 3.77146138,15.6466388 4.12006263,15.6466388 L8.79334029,15.6466388 C9.14194154,15.6466388 9.4248643,15.9295363 9.4248643,16.2781628 C9.4248643,16.6267388 9.13941545,16.9096868 8.7908142,16.9096868 Z M13.4640919,13.6864136 L4.12006263,13.6864136 C3.77146138,13.6864136 3.48853862,13.4034656 3.48853862,13.0548896 C3.48853862,12.706263 3.77146138,12.4233656 4.12006263,12.4233656 L13.4640919,12.4233656 C13.8126931,12.4233656 14.0956159,12.706263 14.0956159,13.0548896 C14.0956159,13.4034656 13.8126931,13.6864136 13.4640919,13.6864136 Z M4.12006263,9.00048017 L13.4640919,9.00048017 C13.8126931,9.00048017 14.0956159,9.28340292 14.0956159,9.63200418 C14.0956159,9.98060543 13.8126931,10.2635282 13.4640919,10.2635282 L4.12006263,10.2635282 C3.77146138,10.2635282 3.48853862,9.98060543 3.48853862,9.63200418 C3.48853862,9.28340292 3.77146138,9.00048017 4.12006263,9.00048017 Z" id="Shape"></path>
            <path d="M0.603736952,5.36795407 L4.2640501,5.36795407 C4.2665762,5.36795407 4.27162839,5.36795407 4.27415449,5.36795407 C4.88546973,5.36290188 5.38058455,4.86778706 5.38563674,4.25647182 C5.38563674,4.25394572 5.38563674,4.24889353 5.38563674,4.24636743 L5.38563674,0.583528184 C5.38563674,0.245031315 5.10776618,0.0202087683 4.81981649,0.0202087683 C4.68088121,0.0202087683 4.54194593,0.0707306889 4.42574551,0.186931106 L0.204613779,4.40803758 C-0.149039666,4.76169102 0.101043841,5.36795407 0.603736952,5.36795407 Z" id="Shape"></path>
        </g>
    </g>
</svg>