<?xml version="1.0" encoding="UTF-8"?>
<svg width="20px" height="24px" viewBox="0 0 20 24" version="1.1" xmlns="http://www.w3.org/2000/svg" xmlns:xlink="http://www.w3.org/1999/xlink">
    <!-- Generator: Sketch 48.2 (47327) - http://www.bohemiancoding.com/sketch -->
    <title>Shipping Details</title>
    <desc>Created with Sketch.</desc>
    <defs></defs>
    <g id="Order-left-nav" stroke="none" stroke-width="1" fill="none" fill-rule="evenodd" transform="translate(-22.000000, -310.000000)">
        <g id="Shipping-Details" transform="translate(22.000000, 310.000000)" fill-rule="nonzero">
            <g id="Invoice-Small-Copy-5" fill="#679136">
                <path d="M2.66666667,0 L17.3333333,0 C18.8060927,-2.705415e-16 20,1.19390733 20,2.66666667 L20,21.3333333 C20,22.8060927 18.8060927,24 17.3333333,24 L2.66666667,24 C1.19390733,24 1.81916976e-12,22.8060927 1.8189894e-12,21.3333333 L1.8189894e-12,2.66666667 C1.81880904e-12,1.19390733 1.19390733,2.705415e-16 2.66666667,0 Z" id="Rectangle"></path>
            </g>
            <g id="small-rocket-ship-silhouette" transform="translate(3.000000, 6.000000)" fill="#FFFFFF">
                <path d="M13.9139088,0.0814856625 C13.8566749,0.0272520265 13.7881503,0 13.7080948,0 C12.2163787,0 10.9847077,0.202962998 10.0130818,0.609069272 C9.04157597,1.01523564 8.01848155,1.75299337 6.94394865,2.82234246 C6.48676769,3.28559686 5.98373351,3.8432268 5.43508633,4.4951722 L2.18587348,4.66667668 C2.09440726,4.67830461 2.02011723,4.723945 1.96297336,4.80398844 L0.0425731091,8.09826869 C-0.0260415701,8.21262504 -0.0116880399,8.32418709 0.0854235018,8.43286468 L0.634070681,8.98184128 C0.685539198,9.0333407 0.751211103,9.05903032 0.831266567,9.05903032 C0.86558892,9.05903032 0.891233094,9.05614587 0.908379256,9.05040702 L3.27466983,8.32109231 L5.68378076,10.7317699 L4.9550238,13.0992709 C4.92652694,13.2023299 4.94937848,13.2937308 5.02363848,13.3738344 L5.57231569,13.9229011 C5.63519496,13.9741902 5.70098698,14 5.76951158,14 C5.82104015,14 5.86674323,13.9884622 5.90671091,13.965627 L9.19898435,12.0440737 C9.27903981,11.9869256 9.32468284,11.9126811 9.33615365,11.8211599 L9.50755522,8.56987597 C10.1591695,8.02080923 10.7165549,7.5175932 11.1794112,7.06001756 C12.1970705,6.03621871 12.9213232,5.00550921 13.3527098,3.96755854 C13.7843067,2.92954778 14,1.69848931 14,0.274563416 C13.9999099,0.200228781 13.971353,0.135929623 13.9139088,0.0814856625 Z M11.8394634,3.32853307 C11.6795627,3.48855986 11.4851294,3.56872348 11.2564938,3.56872348 C11.0278583,3.56872348 10.8336352,3.48865 10.6735243,3.32853307 C10.5136236,3.1683861 10.433478,2.97392622 10.433478,2.74512337 C10.433478,2.51644071 10.5135335,2.32195078 10.6735243,2.16180381 C10.8335151,2.00174698 11.0278583,1.92164345 11.2564938,1.92164345 C11.4851294,1.92164345 11.6794726,2.00165684 11.8394634,2.16180381 C11.9994542,2.32195078 12.0795097,2.51644071 12.0795097,2.74512337 C12.0795097,2.97395627 11.9996644,3.16826592 11.8394634,3.32853307 Z" id="Shape"></path>
            </g>
        </g>
    </g>
</svg>