<?xml version="1.0" encoding="UTF-8"?>
<svg width="35px" height="35px" viewBox="0 0 35 35" version="1.1" xmlns="http://www.w3.org/2000/svg" xmlns:xlink="http://www.w3.org/1999/xlink">
    <!-- Generator: Sketch 47.1 (45422) - http://www.bohemiancoding.com/sketch -->
    <title>User Icon Copy 2</title>
    <desc>Created with Sketch.</desc>
    <defs>
        <circle id="path-1" cx="17.5" cy="17.5" r="17.5"></circle>
    </defs>
    <g id="Page-1" stroke="none" stroke-width="1" fill="none" fill-rule="evenodd">
        <g id="Dashboard-2" transform="translate(-88.000000, -990.000000)">
            <g id="User-Icon-Copy-2" transform="translate(88.000000, 990.000000)">
                <mask id="mask-2" fill="white">
                    <use xlink:href="#path-1"></use>
                </mask>
                <use id="Oval-2" fill="#24A9E6" xlink:href="#path-1"></use>
                <path d="M26.9018169,10.2042449 C26.1611909,10.6538039 25.3428141,10.9807559 24.4681178,11.1556951 C23.7713512,10.3931394 22.7755431,9.91666667 21.6730769,9.91666667 C19.5598506,9.91666667 17.8448478,11.6750305 17.8448478,13.8435795 C17.8448478,14.1510938 17.8777423,14.4501353 17.9435314,14.7377135 C14.7607335,14.5737391 11.9392772,13.0122442 10.0493352,10.6333694 C9.71939275,11.2155034 9.53099663,11.8908387 9.53099663,12.6095351 C9.53099663,13.9716689 10.2068303,15.1738156 11.2350346,15.8780583 C10.6080443,15.859119 10.0164406,15.6806909 9.49909887,15.3881287 L9.49909887,15.4364737 C9.49909887,17.3398726 10.8193669,18.9277828 12.5727467,19.287131 C12.2517756,19.3793354 11.9128619,19.4251885 11.5634818,19.4251885 C11.3167726,19.4251885 11.0760442,19.4017635 10.8427919,19.3559105 C11.3302294,20.9154118 12.7436988,22.0512709 14.4198262,22.0811751 C13.1095262,23.1352962 11.4573221,23.7632833 9.66357168,23.7632833 C9.35456216,23.7632833 9.04904147,23.7453408 8.75,23.7094559 C10.4445683,24.8218901 12.4586126,25.4723053 14.6206824,25.4723053 C21.6656009,25.4723053 25.5167566,19.4894824 25.5167566,14.2996177 C25.5167566,14.1286657 25.5137661,13.9582121 25.5072869,13.7907488 C26.255389,13.2365253 26.9053058,12.5457395 27.4166667,11.7582637 C26.7308649,12.0702636 25.9922325,12.2815863 25.2177151,12.3762827 C26.0086798,11.8908387 26.6157339,11.120807 26.9018169,10.2042449" id="Twitter-Copy" fill="#FFFFFF" mask="url(#mask-2)"></path>
            </g>
        </g>
    </g>
</svg>