<?xml version="1.0" encoding="UTF-8"?>
<svg width="35px" height="35px" viewBox="0 0 35 35" version="1.1" xmlns="http://www.w3.org/2000/svg" xmlns:xlink="http://www.w3.org/1999/xlink">
    <!-- Generator: Sketch 47.1 (45422) - http://www.bohemiancoding.com/sketch -->
    <title>pinterest (1)</title>
    <desc>Created with Sketch.</desc>
    <defs></defs>
    <g id="Page-1" stroke="none" stroke-width="1" fill="none" fill-rule="evenodd">
        <g id="Dashboard-2" transform="translate(-88.000000, -1066.000000)" fill-rule="nonzero">
            <g id="pinterest-(1)" transform="translate(88.000000, 1066.000000)">
                <path d="M17.4999399,0 C27.1654612,0 35,7.83562006 35,17.5000601 C35,27.1655814 27.1654612,35 17.4999399,35 C7.83441863,35 0,27.1654612 0,17.5000601 C0,7.83562006 7.83453877,0 17.4999399,0 Z" id="Shape" fill="#C8232C"></path>
                <path d="M18.5436884,7.20588235 C12.3736879,7.20588235 9.26470588,11.4364955 9.26470588,14.9633917 C9.26470588,17.0992387 10.1095393,18.9994053 11.9239837,19.7073966 C12.2205409,19.8230403 12.4887286,19.7116709 12.5740774,19.3971532 L12.8388993,18.3994589 C12.9264119,18.0892155 12.8925128,17.9790334 12.6528147,17.7077337 C12.1285805,17.1185918 11.7959604,16.3544409 11.7959604,15.2724478 C11.7959604,12.1346322 14.2506414,9.32534452 18.1881083,9.32534452 C21.675871,9.32534452 23.5909308,11.3628825 23.5909308,14.0834783 C23.5909308,17.6634471 21.9340813,20.685619 19.4739909,20.685619 C18.1169442,20.685619 17.0992493,19.6122933 17.4253781,18.2924825 C17.8149776,16.7208439 18.5722983,15.0227571 18.5722983,13.8867415 C18.5722983,12.8718313 18.002144,12.0221942 16.8202427,12.0221942 C15.4314607,12.0221942 14.316396,13.3960274 14.316396,15.2367099 C14.316396,16.409532 14.7311193,17.2018221 14.7311193,17.2018221 L13.060085,23.9692359 C12.5643404,25.9764976 12.9867571,28.4387353 13.0217381,28.6873575 C13.0436163,28.8343461 13.2406399,28.8688968 13.3303163,28.7587146 C13.4583396,28.5987844 15.1119435,26.6455452 15.6744044,24.6934934 C15.834163,24.141158 16.5882381,21.279985 16.5882381,21.279985 C17.0391445,22.1046886 18.3578443,22.8289461 19.7597292,22.8289461 C23.9324464,22.8289461 26.7647059,19.1896119 26.7647059,14.3190401 C26.7633836,10.6366066 23.5022161,7.20588235 18.5436884,7.20588235 Z" id="Shape" fill="#FFFFFF"></path>
            </g>
        </g>
    </g>
</svg>