<?xml version="1.0" encoding="utf-8"?>
<!-- Generator: Adobe Illustrator 21.0.0, SVG Export Plug-In . SVG Version: 6.00 Build 0)  -->
<svg version="1.1" id="Layer_1" xmlns="http://www.w3.org/2000/svg" xmlns:xlink="http://www.w3.org/1999/xlink" x="0px" y="0px"
	 viewBox="0 0 22 22" style="enable-background:new 0 0 22 22;" xml:space="preserve">
<g>
	<path d="M11,13.5c-2.8,0-5.1-2.3-5.1-5.1c0-2.8,2.3-5.1,5.1-5.1c2.8,0,5.1,2.3,5.1,5.1C16.1,11.2,13.8,13.5,11,13.5z M11,5.5
		c-1.6,0-2.9,1.3-2.9,2.9c0,1.6,1.3,2.9,2.9,2.9s2.9-1.3,2.9-2.9C13.9,6.8,12.6,5.5,11,5.5z"/>
	<path d="M17.2,18c-0.1-0.2-0.2-0.4-0.3-0.6c-0.6-0.9-1.5-1.5-2.5-1.7c-1,0.6-2.2,1-3.4,1c-1.2,0-2.4-0.4-3.4-1
		c-1,0.2-1.9,0.8-2.5,1.7C5,17.6,4.9,17.8,4.8,18l-2-0.9c0.1-0.3,0.3-0.6,0.5-0.9c1-1.5,2.5-2.4,4.3-2.7c0.4-0.1,0.8,0.1,1.1,0.3
		c0.7,0.5,1.5,0.8,2.4,0.8c0.9,0,1.7-0.3,2.4-0.8c0.3-0.2,0.7-0.3,1.1-0.3c1.7,0.2,3.3,1.2,4.3,2.7c0.2,0.3,0.4,0.6,0.5,0.9L17.2,18
		z M7.4,15.6L7.4,15.6L7.4,15.6z M14.7,15.6C14.7,15.6,14.6,15.6,14.7,15.6C14.6,15.6,14.7,15.6,14.7,15.6z"/>
	<path d="M11,22C4.9,22,0,17.1,0,11C0,4.9,4.9,0,11,0c6.1,0,11,4.9,11,11C22,17.1,17.1,22,11,22z M11,2.2c-4.9,0-8.8,4-8.8,8.8
		c0,4.9,4,8.8,8.8,8.8c4.9,0,8.8-4,8.8-8.8C19.8,6.1,15.9,2.2,11,2.2z"/>
</g>
</svg>
