<?xml version="1.0" encoding="UTF-8"?>
<svg width="28px" height="19px" viewBox="0 0 28 19" version="1.1" xmlns="http://www.w3.org/2000/svg" xmlns:xlink="http://www.w3.org/1999/xlink">
    <!-- Generator: Sketch 48.2 (47327) - http://www.bohemiancoding.com/sketch -->
    <title>Users</title>
    <desc>Created with Sketch.</desc>
    <defs></defs>
    <g id="Global-Nav" stroke="none" stroke-width="1" fill="none" fill-rule="evenodd" transform="translate(-18.000000, -473.000000)" opacity="0.600000024">
        <g id="Users" transform="translate(18.000000, 473.000000)" fill="#FFFFFF" fill-rule="nonzero">
            <path d="M19.0909091,8.14285714 C21.2036364,8.14285714 22.8963636,6.32428571 22.8963636,4.07142857 C22.8963636,1.81857143 21.2036364,0 19.0909091,0 C16.9781818,0 15.2727273,1.81857143 15.2727273,4.07142857 C15.2727273,6.32428571 16.9781818,8.14285714 19.0909091,8.14285714 Z M8.90909091,8.14285714 C11.0218182,8.14285714 12.7145455,6.32428571 12.7145455,4.07142857 C12.7145455,1.81857143 11.0218182,0 8.90909091,0 C6.79636364,0 5.09090909,1.81857143 5.09090909,4.07142857 C5.09090909,6.32428571 6.79636364,8.14285714 8.90909091,8.14285714 Z M8.90909091,10.8571429 C5.94363636,10.8571429 0,12.445 0,15.6071429 L0,19 L17.8181818,19 L17.8181818,15.6071429 C17.8181818,12.445 11.8745455,10.8571429 8.90909091,10.8571429 Z M19.0909091,10.8571429 C18.7218182,10.8571429 18.3018182,10.8842857 17.8563636,10.925 C19.3327273,12.065 20.3636364,13.5985714 20.3636364,15.6071429 L20.3636364,19 L28,19 L28,15.6071429 C28,12.445 22.0563636,10.8571429 19.0909091,10.8571429 Z" id="Shape" opacity="0.699999988"></path>
        </g>
    </g>
</svg>